<?xml version="1.0" encoding="UTF-8"?> <svg xmlns="http://www.w3.org/2000/svg" width="139" height="40" viewBox="0 0 139 40" fill="none"><path d="M121.391 0.100748C121.391 0.292518 138.707 17.6094 138.899 17.6094C138.976 17.6094 139.014 13.6589 138.995 8.8263L138.938 0.0623935L130.174 0.00486246C125.341 -0.0143146 121.391 0.0240395 121.391 0.100748Z" fill="black"></path><path d="M0 20.3714V32.7598H5.54216C8.57213 32.7598 11.487 32.6831 12.0048 32.5872C14.6512 32.0886 16.4539 30.8612 17.3936 28.9627C17.873 28.0039 17.9305 27.6587 17.9305 26.0478C17.9305 24.4369 17.873 24.0917 17.3936 23.1329C16.7799 21.9056 15.8786 21.081 14.3636 20.4098L13.328 19.9687L14.0951 19.566C15.8594 18.6647 16.8758 17.0921 17.0292 15.0977C17.2593 11.7993 15.7252 9.61309 12.4651 8.55836C11.3528 8.19399 10.6433 8.15564 5.61887 8.05975L0 7.98305V20.3714ZM11.5062 12.0486C12.7144 12.7198 13.2321 13.5827 13.2321 14.8676C13.2321 16.0566 12.9061 16.7853 12.0815 17.4757C11.1994 18.2236 10.3556 18.377 6.96126 18.377H3.83541V14.906V11.4349L7.24892 11.5116C10.4515 11.5692 10.6816 11.5883 11.5062 12.0486ZM11.0268 21.9247C13.0787 22.4617 14.0568 23.5931 14.0759 25.4725C14.0951 27.582 12.7719 28.9435 10.3364 29.3271C9.66522 29.423 7.93929 29.4805 6.52019 29.4613L3.93129 29.4038L3.87376 25.7602C3.85458 23.7657 3.87376 22.0206 3.91211 21.8864C4.06553 21.5029 9.55016 21.5412 11.0268 21.9247Z" fill="black"></path><path d="M44.1071 12.3374V14.9263H42.3812H40.6553V16.3646V17.7837L42.3429 17.8412L44.0113 17.8987L44.1071 23.9395C44.203 29.7118 44.2222 30.0186 44.6249 30.7665C45.0852 31.6295 46.0057 32.4924 46.7727 32.7993C48.4603 33.4513 51.3369 33.2979 53.0628 32.4541L54.0792 31.9747L53.7532 31.361C53.5806 31.0158 53.2354 30.4213 53.0053 30.0378L52.545 29.3282L51.7396 29.6926C51.2793 29.9035 50.5123 30.0761 50.0137 30.0761C48.863 30.0761 48.0001 29.3858 47.7508 28.2735C47.559 27.3914 47.4823 19.337 47.6741 18.4165L47.8083 17.8028H50.263H52.7368V16.3646V14.9263H50.263C48.096 14.9263 47.77 14.8879 47.6741 14.6003C47.5974 14.4085 47.5398 13.4113 47.559 12.3374C47.5782 11.2826 47.5782 10.2663 47.5782 10.0745C47.559 9.78684 47.3481 9.74849 45.8331 9.74849H44.1071V12.3374Z" fill="black"></path><path d="M59.2572 12.336V14.9249H57.6271H55.9971V16.3632V17.8015H57.6079H59.238L59.2955 23.6888C59.3531 29.2885 59.3722 29.6337 59.7749 30.4967C60.216 31.4555 60.9256 32.2418 61.7694 32.6828C63.2652 33.4499 66.5444 33.354 68.2704 32.4719C68.7881 32.2034 69.2292 31.9349 69.2292 31.8774C69.2292 31.8199 68.9224 31.2254 68.558 30.5542L67.8677 29.346L66.928 29.7104C65.2212 30.3624 63.9364 30.1323 63.2843 29.0776C62.92 28.4831 62.9008 28.0995 62.9008 23.1135V17.8015H65.4897H68.0786V16.3632V14.9249H65.4897H62.9008V12.336V9.74712H61.079H59.2572V12.336Z" fill="black"></path><path d="M26.5405 14.9255C25.3324 15.2323 23.8749 15.8651 23.0503 16.4213C22.8394 16.5555 22.9736 16.8815 23.6448 17.9363L24.5078 19.2786L25.7926 18.6458C29.8965 16.6706 33.7511 17.7637 33.7511 20.9279V21.7717L30.5485 21.8867C26.272 22.021 24.6804 22.5004 23.1654 24.0729C22.1682 25.1085 21.8613 25.9523 21.8613 27.7357C21.8613 28.963 21.9572 29.4041 22.3599 30.2287C23.3188 32.1464 25.3707 33.2012 28.2089 33.2012C30.3759 33.2012 31.4882 32.7601 32.8498 31.3794L33.9429 30.2479V31.5136V32.7601H35.688H37.4331L37.3564 25.8947C37.2988 19.2211 37.2797 19.0293 36.8578 18.0897C36.0523 16.3254 34.5757 15.2131 32.447 14.7529C30.9129 14.4269 28.113 14.5036 26.5405 14.9255ZM33.7511 25.8947C33.7319 28.6754 32.0635 30.2671 29.1486 30.2671C26.7323 30.2671 25.4091 29.174 25.5625 27.333C25.62 26.6426 25.7926 26.2591 26.1953 25.8372C27.0199 24.9742 28.0939 24.7249 31.1238 24.7249L33.7511 24.7057V25.8947Z" fill="black"></path><path d="M77.609 14.7341C76.6885 14.9834 75.0393 15.808 74.3105 16.4216C73.4092 17.1696 72.3545 18.6654 71.9326 19.7968C70.7436 22.9802 71.2039 27.4484 72.9298 29.7305C73.8311 30.9003 75.3653 32.0893 76.5926 32.5495C78.8363 33.3741 82.6334 33.4125 84.973 32.5879C86.2003 32.166 87.6002 31.3414 87.7536 30.9387C87.8112 30.7852 87.466 30.1524 86.9674 29.5004L86.0852 28.3498L85.3757 28.8292C83.8223 29.9031 80.6581 30.4017 78.7788 29.8839C77.0145 29.3853 75.4036 27.621 75.0776 25.7992L74.9434 25.0897H81.7704C87.9454 25.0897 88.6166 25.0513 88.7317 24.7637C88.9234 24.2459 88.4632 21.0433 88.0221 19.8735C87.1783 17.5914 85.5483 15.923 83.4196 15.0984C82.2306 14.619 78.8747 14.4272 77.609 14.7341ZM82.2115 18.09C83.573 18.7804 84.9346 20.7173 84.9538 21.9638V22.4049H79.9486H74.9434L75.0776 21.772C75.442 20.1803 76.7268 18.4928 78.0501 17.9175C79.1431 17.438 81.0608 17.5339 82.2115 18.09Z" fill="black"></path><path d="M99.6241 15.0018C98.6078 15.4813 97.8982 16.1333 97.2462 17.2264L96.8435 17.8976V16.4018V14.9251H95.1175H93.3916V23.8424V32.7598H95.2134H97.0352V26.8532C97.0352 20.2563 97.0928 20.007 98.4352 18.8181C99.394 17.9743 100.295 17.725 101.925 17.8592L103.306 17.9551L103.536 16.4018C103.709 15.1744 103.69 14.8292 103.517 14.695C103.383 14.6183 102.673 14.5416 101.925 14.5416C100.909 14.5416 100.353 14.6567 99.6241 15.0018Z" fill="black"></path><path d="M106.682 15.0596C106.739 15.1555 108.427 19.0867 110.46 23.8426L114.161 32.4723L113.816 33.4695C112.914 36.0968 112.262 36.6529 109.827 36.7871L108.063 36.883L108.005 38.3597L107.948 39.8555H109.942C113.26 39.8555 114.775 39.1076 115.964 36.8447C116.385 36.0584 123.443 19.0676 124.977 15.1555C125.053 14.9637 124.651 14.9253 123.097 14.9637L121.122 15.0212L119.53 19.1443C118.648 21.4072 117.517 24.2837 117.037 25.5111C116.558 26.7576 116.098 27.7739 116.021 27.7739C115.944 27.7739 114.736 24.8782 113.317 21.3496L110.747 14.9253H108.676C107.526 14.9253 106.644 14.9829 106.682 15.0596Z" fill="black"></path></svg> 