<?xml version="1.0" encoding="UTF-8"?> <svg xmlns="http://www.w3.org/2000/svg" width="174" height="49" viewBox="0 0 174 49" fill="none"><path d="M21.9599 0.0507409C18.3164 0.38021 14.5178 1.63025 11.5913 3.45202C10.7095 4.00436 9.75987 4.65361 9.37226 4.9637C7.67647 6.32034 6.48456 7.50255 5.0601 9.25648C4.69187 9.69254 3.74222 11.0976 3.74222 11.1848C3.74222 11.2333 3.68408 11.3302 3.60656 11.4077C3.1705 11.8438 1.99798 14.2567 1.39718 15.9331C0.069616 19.6832 -0.327684 23.7143 0.273111 27.4645C0.321563 27.8133 0.389394 28.2203 0.418465 28.385C0.680102 30.1002 1.52315 32.5906 2.53094 34.6256C3.05421 35.6915 3.75191 36.8931 3.98448 37.1257C4.062 37.1935 4.14921 37.3388 4.17828 37.4454C4.20735 37.552 4.27519 37.6392 4.32364 37.6392C4.37209 37.6392 4.43023 37.7168 4.4593 37.804C4.48837 37.9009 4.61435 38.0947 4.73063 38.2303C4.8566 38.3757 5.0601 38.6276 5.19576 38.8118C5.68027 39.4513 7.70554 41.5735 8.442 42.1937C9.15908 42.8041 9.6339 43.1627 9.7308 43.1627C9.78894 43.1627 9.87615 43.2208 9.91492 43.2887C9.95368 43.3565 10.2735 43.5987 10.6223 43.8216C10.9712 44.0445 11.3006 44.2674 11.3685 44.3255C11.6689 44.5775 13.3065 45.4205 14.8473 46.1279C15.4384 46.3895 17.5024 47.0775 18.0353 47.1745C18.1419 47.1938 18.4908 47.281 18.8106 47.3586C19.8959 47.6493 22.8417 48.0078 24.0433 48.0078C24.8864 48.0078 27.7062 47.6687 28.8884 47.4264C31.3982 46.9128 34.2471 45.7984 36.3693 44.5096C40.3617 42.0871 43.7533 38.366 45.6816 34.3349C46.3987 32.8329 46.8154 31.7088 47.203 30.3231C49.2573 22.8325 47.6294 15.0222 42.7455 8.95609C38.8888 4.1691 33.22 0.990696 27.086 0.176714C25.7682 0.0119798 23.1518 -0.0558519 21.9599 0.0507409ZM26.8632 2.30857C29.1985 2.61866 31.3207 3.23883 33.3266 4.19817C34.4409 4.72144 36.2627 5.7583 36.66 6.08777C36.7569 6.16529 37.0961 6.43662 37.4159 6.67888C38.5012 7.49286 39.8578 8.80104 40.7687 9.87666C40.9528 10.0898 41.1175 10.2837 41.1466 10.3127C41.3113 10.4678 42.261 11.8341 42.6874 12.5124C43.1719 13.2973 43.8502 14.5764 44.2572 15.497C44.9936 17.154 45.7495 20.3324 45.8464 22.1445C45.8851 22.6969 45.9239 23.3655 45.9433 23.6368C45.9917 24.2667 45.827 26.4082 45.6429 27.5129C45.3812 29.1215 45.139 29.9646 44.3444 32.1642C44.1215 32.7844 43.5789 33.8891 43.1137 34.6837C42.9587 34.955 42.8036 35.2361 42.7649 35.3136C42.6777 35.4977 42.4742 35.8369 42.3966 35.895C42.3676 35.9241 42.1447 36.2342 41.9024 36.583C41.6602 36.9415 41.3307 37.3776 41.166 37.552C40.9916 37.7361 40.8559 37.9106 40.8559 37.9396C40.8559 37.9687 40.6912 38.1722 40.4974 38.3854C40.2939 38.5986 39.945 38.9668 39.7318 39.1994C38.7144 40.2847 36.8635 41.7091 34.8964 42.9398C34.6735 43.0852 32.9293 43.9379 32.8614 43.9379C32.8421 43.9379 32.5901 44.0445 32.3091 44.1802C31.1075 44.7422 28.5977 45.4011 26.805 45.624C25.0511 45.8372 22.1053 45.7984 20.6517 45.5465C20.5451 45.5271 20.2835 45.4787 20.0703 45.4399C17.7253 45.0329 14.9054 43.9573 12.7542 42.6491C11.9111 42.1355 10.7677 41.3409 10.3413 40.9824C9.39164 40.1684 8.19005 39.0637 8.13191 38.9474C8.08346 38.8796 7.85089 38.6083 7.60863 38.3466C5.42833 36.05 3.45151 32.1739 2.68598 28.7242C2.2693 26.8346 2.20147 26.0788 2.23054 23.6368C2.24992 22.3577 2.29837 21.1755 2.32745 21.0205C2.36621 20.8557 2.45342 20.3809 2.53094 19.9545C2.90886 17.9196 3.51935 16.0978 4.49806 14.0919C4.64342 13.8012 4.81784 13.5105 4.87598 13.433C4.94381 13.3652 5.03103 13.2004 5.0601 13.0648C5.08917 12.9388 5.14731 12.8322 5.18607 12.8322C5.21514 12.8322 5.33142 12.6675 5.43802 12.464C5.54461 12.2702 5.7578 11.9213 5.92253 11.7081C6.07757 11.4852 6.30045 11.1848 6.40704 11.0395C6.60085 10.7585 7.03691 10.2158 7.49235 9.68285C8.00593 9.07237 8.96527 8.11303 9.56607 7.59945C9.90522 7.30874 10.2347 7.01803 10.2928 6.96958C10.6223 6.67888 12.3278 5.49666 13.0061 5.09936C15.3027 3.73304 18.8687 2.53145 21.2719 2.30857C21.6207 2.26981 21.9308 2.23105 21.9502 2.21167C22.0665 2.10507 25.9232 2.19229 26.8632 2.30857Z" fill="black"></path><path d="M20.5546 14.276C18.4131 14.9059 16.9305 16.5533 16.5429 18.782C16.475 19.1405 16.4363 21.2143 16.4363 24.131C16.4363 28.763 16.4266 28.9277 16.2328 29.4607C15.9227 30.294 15.4479 30.8076 14.6145 31.2146C14.1494 31.4375 13.9362 31.4859 13.2869 31.4859C12.6377 31.4859 12.4148 31.4375 11.9303 31.2146C10.9419 30.7495 10.3411 29.9936 10.1279 28.9374C9.8372 27.5517 10.5058 26.1951 11.8043 25.478C12.2695 25.2163 12.4245 25.1873 13.4129 25.1582L14.4982 25.1194V23.9566V22.7841L13.2676 22.8422C11.3973 22.9294 10.5155 23.2977 9.31393 24.5089C7.97667 25.8462 7.43402 27.7164 7.86039 29.451C7.9476 29.7708 8.02512 30.1099 8.0542 30.2068C8.16079 30.6526 8.77127 31.5925 9.31393 32.1449C10.4283 33.2786 11.6784 33.8019 13.2869 33.8019C14.3335 33.8116 14.6145 33.7438 15.7483 33.2108C16.7464 32.7457 17.7638 31.7088 18.2483 30.6816C18.7425 29.6351 18.7619 29.4316 18.7716 25.2357C18.7716 23.0748 18.8104 20.6716 18.8491 19.8964L18.917 18.4816L19.3046 17.9099C19.7794 17.2025 20.4287 16.7083 21.1554 16.5145L21.7175 16.3691L21.7271 15.2257L21.7465 14.0919L21.4364 14.1016C21.2717 14.1016 20.8744 14.1791 20.5546 14.276Z" fill="black"></path><path d="M27.1637 14.1984C26.9602 14.2469 26.6695 14.3535 26.5145 14.431C26.3594 14.5182 26.2044 14.5763 26.1656 14.5666C25.8362 14.4891 23.8012 16.2043 23.8012 16.5628C23.8012 16.6404 23.7625 16.7082 23.714 16.7082C23.6268 16.7082 23.2101 17.5997 23.0163 18.2102C22.9291 18.5009 22.8903 19.9253 22.8613 23.6852C22.8322 28.9179 22.8031 29.3637 22.4252 29.9063C22.3283 30.042 22.2508 30.197 22.2508 30.2358C22.2508 30.3327 21.5725 30.9529 21.4659 30.9529C21.4271 30.9529 21.3302 31.011 21.2624 31.0691C21.0298 31.3017 20.3612 31.4761 19.7022 31.4955L19.053 31.5052L18.646 32.0672C18.4231 32.3773 18.0646 32.8134 17.8514 33.0266L17.4541 33.4142L18.0258 33.5886C19.9445 34.1797 22.0473 33.6661 23.4814 32.261C23.8206 31.9316 24.0919 31.6118 24.0919 31.5537C24.0919 31.4858 24.1307 31.4374 24.1791 31.4374C24.2954 31.4374 24.9156 30.1195 25.0416 29.5962C25.0997 29.3346 25.1675 27.0477 25.2063 23.9759L25.2741 18.7916L25.5067 18.2974C25.9815 17.2799 26.6889 16.7373 27.9002 16.4756L28.1715 16.4078L28.1521 15.2546L28.1328 14.0918L27.8324 14.1015C27.6676 14.1112 27.3672 14.15 27.1637 14.1984Z" fill="black"></path><path d="M33.5297 14.2272C32.0858 14.576 30.671 15.671 29.983 16.9598C29.3725 18.1324 29.3919 17.9289 29.3338 23.7333L29.2756 29.063L29.014 29.6347C28.7233 30.2355 28.2291 30.7878 27.6767 31.1173C27.2988 31.3402 26.3879 31.5534 25.9034 31.534C25.4383 31.5049 25.3511 31.5243 25.3511 31.6406C25.3511 31.7859 24.4305 32.9294 24.1398 33.162L23.9072 33.3461L24.1204 33.4527C24.5662 33.6852 25.5933 33.85 26.3686 33.8209C28.6167 33.724 30.6516 32.1639 31.3881 29.9836C31.5916 29.3731 31.5916 29.1696 31.6497 24.024L31.6982 18.6944L31.9598 18.2002C32.299 17.551 32.8901 16.9695 33.4618 16.6982C34.1208 16.3784 35.5646 16.3784 36.2139 16.6885C37.5996 17.3475 38.3748 19.0723 37.9096 20.4871C37.4058 22.0375 36.2235 22.8128 34.3921 22.8128H33.5878V23.9853V25.1675L34.7312 25.1094C36.553 25.0221 37.6092 24.5958 38.7139 23.4814C40.9233 21.272 40.933 17.9289 38.7236 15.7292C37.929 14.9346 37.1926 14.5082 36.1557 14.2369C35.4774 14.0625 34.2273 14.0625 33.5297 14.2272Z" fill="black"></path><path d="M105.829 17.8224C102.437 18.5686 100.247 22.057 101.051 25.4293C101.1 25.6715 101.323 26.2335 101.536 26.6793C101.846 27.3285 102.079 27.6483 102.708 28.2879C103.871 29.4507 104.889 29.9643 106.488 30.1872C107.544 30.3325 108.697 30.1387 109.724 29.6542C110.538 29.2666 111.401 28.6755 111.401 28.5011C111.401 28.4429 111.178 28.1619 110.897 27.8809L110.403 27.377L110.112 27.6192C109.395 28.22 108.193 28.627 107.137 28.627C105.858 28.627 104.753 28.1716 103.842 27.2704C101.73 25.1579 102.117 21.6404 104.637 20.0027C105.451 19.4697 106.216 19.2953 107.437 19.3438C108.523 19.3922 109.104 19.586 109.976 20.1868L110.403 20.4775L110.926 19.9446L111.449 19.4019L111.061 19.0628C109.802 17.9581 107.583 17.4348 105.829 17.8224Z" fill="black"></path><path d="M55.9727 23.9764V29.9844H58.4921C61.3604 29.9844 62.0872 29.8875 63.1725 29.3545C64.8489 28.5308 66.1184 26.9223 66.4866 25.1586C67.0292 22.6004 65.7307 19.8871 63.376 18.6662C62.1357 18.0266 61.748 17.9685 58.6665 17.9685H55.9727V23.9764ZM62.5136 20.0034C64.0349 20.7689 64.9265 22.1546 64.9749 23.8311C65.0234 25.8273 63.7927 27.5618 61.9031 28.1432C61.3798 28.308 61.0019 28.337 59.4515 28.337H57.62L57.6006 24.0733C57.5812 21.7283 57.5909 19.7612 57.6103 19.703C57.6297 19.6352 58.3177 19.6158 59.7422 19.6352L61.8353 19.6643L62.5136 20.0034Z" fill="black"></path><path d="M67.9209 18.0945C67.9403 18.1623 68.6477 20.6334 69.4811 23.5889C70.3144 26.5444 71.0606 29.1995 71.1478 29.4806L71.2931 29.9941L72.1362 29.9651L72.9792 29.936L74.1905 25.6238C75.082 22.4454 75.4406 21.3117 75.5472 21.3117C75.6538 21.3117 75.9348 22.1935 76.6228 24.6064C77.1267 26.4184 77.679 28.3565 77.8341 28.9185L78.1248 29.936L78.9678 29.9651L79.8012 29.9941L79.9465 29.4806C80.0337 29.1995 80.7799 26.5638 81.6036 23.6373C82.4272 20.7012 83.1346 18.2302 83.1637 18.1333C83.2122 17.9879 83.1346 17.9685 82.3885 17.9685H81.5648L81.371 18.6178C81.2644 18.986 81.0222 19.8194 80.838 20.488C79.8981 23.9087 79.1035 26.651 79.026 26.7285C78.9872 26.777 78.9097 26.7188 78.8515 26.5832C78.7643 26.3894 76.836 19.5868 76.5162 18.3755L76.4096 17.9685H75.5568H74.7041L74.4522 18.86C73.173 23.4435 72.33 26.3894 72.2525 26.5735C72.1168 26.8836 72.0102 26.777 71.8649 26.2343C71.7486 25.7498 70.0625 19.7515 69.7233 18.6178L69.5295 17.9685H68.7058C68.0663 17.9685 67.8822 17.9976 67.9209 18.0945Z" fill="black"></path><path d="M85.5283 23.9667V29.9844H86.352H87.1757V28.0463V26.1083H89.3366C91.0324 26.1083 91.6138 26.0792 92.0305 25.9532C94.2399 25.304 95.4996 23.0171 94.831 20.8562C94.4821 19.7224 93.6197 18.7824 92.4472 18.2398C91.9917 18.0266 91.8561 18.0169 88.7552 17.9878L85.5283 17.9588V23.9667ZM92.108 19.8677C92.6022 20.1391 93.1449 20.7786 93.2902 21.2825C93.4356 21.7767 93.4065 22.5326 93.2321 22.988C93.0286 23.4919 92.2243 24.2284 91.7495 24.3543C91.546 24.4125 90.451 24.4609 89.3075 24.4706L87.2241 24.4803L87.195 22.0481L87.1757 19.6158H89.4141C91.6332 19.6158 91.6623 19.6158 92.108 19.8677Z" fill="black"></path><path d="M117.273 18.046C117.205 18.1526 115.781 21.7767 113.726 27.0288C113.31 28.0948 112.883 29.1995 112.767 29.4708L112.563 29.9844H113.416H114.259L115.025 28.0173C116.856 23.3175 118.019 20.4298 118.106 20.3135C118.281 20.1003 118.048 19.548 121.023 27.1257L122.137 29.9359L122.971 29.965C123.426 29.9747 123.804 29.9747 123.804 29.9553C123.804 29.9359 123.3 28.6374 122.68 27.0676C122.07 25.5075 121.013 22.8136 120.345 21.0887L119.124 17.9685H118.223C117.728 17.9685 117.302 18.0072 117.273 18.046Z" fill="black"></path><path d="M125.937 23.9764V29.9844H126.76H127.584V28.0463V26.1083H129.754C131.596 26.1083 132.012 26.0792 132.507 25.9338C134.619 25.2749 135.879 23.0171 135.278 20.9627C134.89 19.6546 133.834 18.5596 132.555 18.1623C131.983 17.9878 131.654 17.9685 128.931 17.9685H125.937V23.9764ZM132.429 19.7805C132.846 19.955 133.572 20.8174 133.689 21.2631C133.844 21.8252 133.795 22.6973 133.582 23.114C133.369 23.5404 132.894 24.0152 132.439 24.2381C132.148 24.3834 131.751 24.4222 129.88 24.4609C128.659 24.49 127.642 24.49 127.623 24.4706C127.574 24.4125 127.574 19.6643 127.623 19.6061C127.71 19.5189 132.196 19.6739 132.429 19.7805Z" fill="black"></path><path d="M137.855 23.9764V29.9844H138.679H139.503V23.9764V17.9685H138.679H137.855V23.9764Z" fill="black"></path><path d="M141.731 18.7437V19.5189H143.96H146.189V24.7516V29.9844H146.964H147.739V24.7516V19.5189H149.968H152.197V18.7437V17.9685H146.964H141.731V18.7437Z" fill="black"></path><path d="M156.431 18.0363C156.412 18.0847 156.015 19.0731 155.559 20.2457C154.774 22.2516 153.65 25.1005 152.313 28.5018L151.731 29.9844H152.574H153.427L153.892 28.7925C154.58 27.0385 156.305 22.6392 156.819 21.331C157.071 20.7108 157.313 20.1972 157.371 20.1972C157.429 20.1972 157.662 20.6623 157.885 21.2438C158.108 21.8155 158.708 23.3465 159.222 24.6547C159.736 25.9629 160.424 27.6975 160.743 28.5018L161.315 29.9844H162.148C162.895 29.9844 162.972 29.965 162.924 29.81C162.895 29.7227 162.022 27.4649 160.966 24.8001C159.92 22.1353 158.883 19.5092 158.67 18.9569L158.292 17.9685H157.381C156.877 17.9685 156.451 17.9975 156.431 18.0363Z" fill="black"></path><path d="M165.085 23.9764V29.9844H169.542H174V29.1607V28.337H170.366H166.732V23.1527V17.9685H165.909H165.085V23.9764Z" fill="black"></path><path d="M97.088 22.9095C96.1868 23.4522 96.3224 24.7216 97.3205 25.0995C97.7082 25.2546 97.7469 25.2449 98.1442 25.0511C98.8613 24.7022 99.1035 23.9755 98.7062 23.3262C98.3477 22.7351 97.6597 22.5607 97.088 22.9095Z" fill="black"></path></svg> 