<?xml version="1.0" encoding="UTF-8"?> <svg xmlns="http://www.w3.org/2000/svg" width="143" height="37" viewBox="0 0 143 37" fill="none"><path d="M16.0368 0.364557C14.392 1.1778 10.2162 3.19719 10.1888 3.19719C10.1705 3.19719 9.20191 3.6632 8.02317 4.23887C5.88499 5.28055 3.67371 6.34964 1.35278 7.47355C0.658324 7.8025 0.0917969 8.10404 0.0917969 8.13145C0.0917969 8.168 0.612636 8.44213 1.2614 8.75281C1.90103 9.05434 3.11632 9.63915 3.96611 10.0412C4.80676 10.4524 5.56518 10.7813 5.62914 10.7813C5.7662 10.7813 6.10429 10.626 8.809 9.32847C9.65879 8.91728 10.3624 8.58833 10.3715 8.58833C10.3898 8.58833 11.1665 8.21369 12.1076 7.76595C13.0488 7.30908 13.8255 6.94358 13.8438 6.94358C13.8529 6.94358 14.5108 6.6329 15.2875 6.25826C16.0733 5.88362 16.7769 5.57295 16.85 5.57295C16.9231 5.57295 17.4896 5.81052 18.111 6.11206C18.7232 6.40446 19.5639 6.79738 19.9659 6.98926C20.368 7.18115 22.2229 8.04922 24.0778 8.92642C25.9419 9.80362 27.6689 10.6077 27.9156 10.6991C28.811 11.0463 29.5603 11.3936 29.8984 11.622C30.0263 11.7134 30.1999 11.7865 30.2822 11.7865C30.3644 11.7865 30.4284 11.823 30.4284 11.8778C30.4284 11.9235 30.5015 11.9692 30.5929 11.9692C30.6842 11.9692 31.0863 12.1337 31.4883 12.3256C32.4935 12.8281 33.5991 13.3398 33.6631 13.3398C33.6905 13.3398 33.7179 12.1794 33.7179 10.7539V8.17714L33.3341 7.97612C33.1148 7.86647 32.4478 7.54665 31.8447 7.25425C31.2416 6.97099 30.072 6.4136 29.2405 6.01155C28.409 5.6095 27.1206 4.97901 26.3622 4.61351C25.6129 4.24801 23.9407 3.4439 22.6615 2.83169C19.4177 1.26917 19.2532 1.19607 19.0979 1.1047C18.842 0.967633 16.8226 -0.000944436 16.7952 -0.000944436C16.7769 0.00819309 16.4388 0.172669 16.0368 0.364557Z" fill="black"></path><path d="M45.1942 7.18168C43.8602 7.48322 42.8002 8.25077 42.2794 9.31072C42.0052 9.88638 41.987 9.95948 41.987 10.9646C41.987 11.9332 42.0052 12.052 42.2428 12.4906C42.8733 13.6967 43.8145 14.2176 46.6471 14.9303C48.4655 15.3963 49.1508 15.6704 49.6351 16.1456C50.0371 16.5385 50.1925 16.9406 50.1925 17.5802C50.1833 18.2289 49.9457 18.7589 49.4615 19.1884C48.0634 20.4128 44.9567 20.1204 43.0652 18.5853C42.6266 18.2198 42.2794 18.0736 42.0601 18.1558C41.457 18.366 41.2834 19.0605 41.7402 19.4808C42.6266 20.3032 44.116 20.9885 45.5506 21.2535C47.0766 21.5276 48.5112 21.3631 49.6808 20.7875C50.5031 20.3854 51.0697 19.8189 51.4626 19.0239C51.7458 18.4574 51.7641 18.3569 51.7641 17.4523C51.7641 16.5476 51.7458 16.4563 51.4626 15.8806C50.8504 14.6379 49.763 14.044 46.7933 13.3312C44.5089 12.783 43.6226 12.1434 43.5221 10.992C43.4581 10.2884 43.6043 9.85897 44.0612 9.35641C44.582 8.78988 45.176 8.56144 46.2725 8.51576C47.5883 8.46093 48.6208 8.74419 49.8087 9.50261C50.3569 9.85897 50.8047 9.86811 51.0697 9.53916C51.3621 9.16452 51.3164 8.79902 50.9326 8.44266C50.5214 8.04974 49.297 7.4558 48.5203 7.26391C47.634 7.05375 45.9618 7.00806 45.1942 7.18168Z" fill="black"></path><path d="M60.2531 7.13575C60.0978 7.18144 59.9059 7.29109 59.8237 7.38247C59.5678 7.65659 53.8203 20.3121 53.8203 20.5862C53.8203 21.1527 54.5605 21.4908 55.0082 21.1253C55.1178 21.0339 55.5473 20.2024 55.9585 19.2795L56.7169 17.5891H60.5729H64.4198L65.1965 19.2795C65.626 20.2116 66.0555 21.0431 66.1651 21.1253C66.421 21.3446 66.8047 21.3355 67.1063 21.0979C67.554 20.7507 67.4901 20.5405 65.69 16.6205C64.7762 14.6377 63.6249 12.1157 63.1223 11.0101C61.7151 7.92158 61.4136 7.3185 61.24 7.23627C60.975 7.0992 60.5547 7.05352 60.2531 7.13575ZM62.0441 12.2071C62.8208 13.9432 63.5335 15.524 63.6157 15.725L63.7711 16.0814H60.5821H57.3839L57.4662 15.8712C57.5119 15.7524 57.85 14.9849 58.2246 14.1625C58.5992 13.331 59.2754 11.8416 59.7232 10.8456C60.1709 9.85874 60.5547 9.0455 60.5821 9.0455C60.6095 9.0455 61.2674 10.471 62.0441 12.2071Z" fill="black"></path><path d="M96.0625 7.34619L95.8066 7.56549V14.2085V20.8515L96.0625 21.0708C96.3914 21.354 96.7752 21.354 97.1042 21.0708L97.36 20.8515L97.3874 17.8726L97.4148 14.8938H101.426H105.447V17.8635C105.447 20.6961 105.456 20.8423 105.629 21.0159C106.013 21.3997 106.689 21.3175 106.9 20.8697C106.973 20.7053 107 18.7772 107 14.1536V7.65687L106.735 7.39188C106.589 7.24568 106.379 7.12689 106.269 7.12689C106.004 7.12689 105.575 7.36447 105.502 7.53808C105.474 7.62032 105.447 8.98181 105.447 10.5626V13.4318H101.426H97.4148L97.3874 10.4986L97.36 7.56549L97.1042 7.34619C96.7752 7.06293 96.3914 7.06293 96.0625 7.34619Z" fill="black"></path><path d="M112.145 7.34619L111.889 7.56549V14.2085V20.8515L112.145 21.0708C112.473 21.354 112.857 21.354 113.186 21.0708L113.442 20.8515L113.469 14.51C113.488 11.0286 113.469 8.04064 113.442 7.86703C113.314 7.19085 112.647 6.91673 112.145 7.34619Z" fill="black"></path><path d="M70.0391 7.31931C69.6188 7.56602 69.6279 7.35586 69.6279 14.273V20.8428L69.8564 21.0621C70.1671 21.382 70.5691 21.3637 70.9163 21.0256L71.1813 20.7606V18.5219V16.2832L73.5388 16.2467C76.143 16.201 76.472 16.1462 77.6507 15.5705C79.8437 14.5014 80.6661 11.9155 79.5422 9.62197C79.1584 8.85441 78.5644 8.26961 77.7329 7.85842C76.6182 7.31931 76.344 7.28276 73.1459 7.24621C71.0625 7.22793 70.1671 7.24621 70.0391 7.31931ZM75.6587 8.78131C76.9562 8.99148 77.9431 9.71334 78.2629 10.7002C78.4822 11.349 78.4182 12.5094 78.135 13.0485C77.7329 13.8252 76.8283 14.474 75.8323 14.7024C75.613 14.7573 74.4708 14.8029 73.3104 14.8029H71.1813V11.7419V8.6808H73.1276C74.1876 8.6808 75.3298 8.72649 75.6587 8.78131Z" fill="black"></path><path d="M82.9138 7.32006C82.8041 7.37489 82.6671 7.52109 82.6122 7.63988C82.5391 7.80435 82.5117 9.77806 82.5117 14.3377C82.5117 20.6334 82.5117 20.8071 82.6945 20.9898C83.0417 21.3644 83.5351 21.3736 83.8823 20.9989C84.056 20.8071 84.0651 20.6883 84.0651 18.5409V16.284L86.4683 16.2383C89.1182 16.1926 89.3649 16.156 90.5527 15.5712C91.7498 14.9773 92.6087 13.8899 92.8371 12.6929C93.0473 11.5781 92.8828 10.3629 92.4077 9.48566C91.9051 8.56277 90.6898 7.71298 89.4106 7.4023C88.7983 7.24696 83.1879 7.183 82.9138 7.32006ZM88.5425 8.78207C90.5619 9.10188 91.7041 10.6461 91.2472 12.4371C90.9822 13.4422 90.3152 14.1458 89.2278 14.5478C88.7252 14.7397 88.4968 14.758 86.3769 14.7854L84.0651 14.8128V11.7518V8.68155H86.0114C87.0713 8.68155 88.2135 8.72724 88.5425 8.78207Z" fill="black"></path><path d="M118.605 7.47432L118.331 7.74845V14.1995C118.331 18.7957 118.358 20.7055 118.432 20.8699C118.642 21.3268 119.327 21.3999 119.702 20.9979C119.875 20.806 119.884 20.6872 119.884 18.3023V15.8077L121.922 15.8169H123.951L125.87 18.3297C126.929 19.7186 127.907 20.943 128.044 21.071C128.401 21.3725 128.784 21.3542 129.122 21.0253C129.278 20.8699 129.387 20.6598 129.387 20.5227C129.387 20.2851 129.342 20.2212 127.094 17.3246C126.345 16.3651 125.732 15.5519 125.732 15.5245C125.732 15.4879 125.924 15.4148 126.153 15.36C127.35 15.0585 128.501 14.1904 128.958 13.2492C129.927 11.239 129.159 8.85409 127.222 7.87637C126.116 7.30984 125.915 7.28243 122.242 7.24588L118.879 7.20019L118.605 7.47432ZM125.888 8.94546C127.067 9.37493 127.743 10.2887 127.743 11.4766C127.743 12.5456 127.204 13.4228 126.217 13.9254C125.541 14.2726 124.855 14.3457 122.333 14.3457H119.884V11.504V8.6622L122.607 8.69875C125.139 8.7353 125.358 8.75357 125.888 8.94546Z" fill="black"></path><path d="M133.161 7.31018C133.052 7.35587 132.924 7.47466 132.869 7.57517C132.796 7.69396 132.769 9.83214 132.769 14.2547V20.7515L132.997 20.9708L133.216 21.1992H137.886H142.555L142.774 20.9708C143.076 20.6784 143.076 20.2581 142.774 19.9657L142.555 19.7372H138.434H134.322V17.3158V14.8943H137.84C140.755 14.8943 141.413 14.8669 141.623 14.7573C142.061 14.538 142.135 14.0171 141.769 13.6608L141.55 13.4323H137.931H134.322V11.0566V8.68081H138.37C142.774 8.68081 142.728 8.68995 142.856 8.16911C142.939 7.84016 142.774 7.44724 142.491 7.31932C142.217 7.20053 133.472 7.18226 133.161 7.31018Z" fill="black"></path><path d="M15.7162 10.8471C14.7567 11.3131 12.2073 12.5376 11.2662 12.9944C10.8276 13.2046 10.7819 13.3143 11.0834 13.4239C11.321 13.5153 12.7373 14.1823 15.6613 15.5712C16.3558 15.9002 16.9771 16.1743 17.032 16.1743C17.0959 16.1743 17.635 16.4119 18.229 16.7134C18.8321 17.0058 19.49 17.3165 19.691 17.4079C20.2027 17.6363 22.4871 18.7237 22.6881 18.8242C23.3003 19.1623 23.9582 19.4638 24.0861 19.4638C24.1592 19.4638 24.2141 19.5004 24.2141 19.5552C24.2141 19.6009 24.2963 19.6466 24.3968 19.6466C24.4973 19.6466 24.5796 19.6831 24.5796 19.7379C24.5796 19.7836 24.6344 19.8293 24.6983 19.8293C24.7623 19.8293 25.0547 19.9481 25.3563 20.0943C25.6578 20.2405 26.2791 20.5329 26.7269 20.7431C27.1838 20.9532 27.9422 21.3096 28.4173 21.538C28.8925 21.7665 29.5961 22.0954 29.9707 22.269C30.5738 22.5523 32.3008 23.3838 33.2876 23.859L33.6257 24.0234V22.8538C33.6257 22.2142 33.6531 20.9441 33.6897 20.0303L33.7445 18.3764L32.5658 17.8191C31.917 17.5084 31.3048 17.216 31.2043 17.1612C31.1038 17.1063 30.9576 17.0332 30.8845 16.9967C30.1991 16.686 29.8154 16.5033 27.1289 15.224C26.7452 15.0412 26.3797 14.895 26.3248 14.895C26.27 14.895 26.2243 14.8494 26.2243 14.8037C26.2243 14.7488 26.1786 14.7123 26.1238 14.7123C26.0142 14.7123 24.5796 14.0453 23.5287 13.5061C23.2272 13.3599 22.7155 13.095 22.3866 12.9305C22.0576 12.7569 21.4454 12.4645 21.0159 12.2634C20.5865 12.0624 19.7458 11.6695 19.1427 11.3771C18.5397 11.0938 17.7995 10.7375 17.4888 10.5913C17.1782 10.4451 16.8949 10.3263 16.8492 10.3354C16.8035 10.3354 16.2918 10.573 15.7162 10.8471Z" fill="black"></path><path d="M0 15.8526V18.7217L0.621352 19.0141C0.95944 19.1695 1.64475 19.4984 2.14732 19.736C2.64988 19.9736 3.35347 20.3025 3.7007 20.467C4.71496 20.933 5.79319 21.4447 7.08158 22.0661C8.12326 22.5686 8.91823 22.9433 9.54871 23.2174C9.64923 23.2631 9.79543 23.3362 9.86853 23.3727C9.94163 23.4184 10.1883 23.5372 10.4168 23.6469C10.6452 23.7474 11.431 24.122 12.162 24.4784C12.9022 24.8347 13.5235 25.1271 13.551 25.1271C13.6058 25.1271 14.7571 25.6663 16.0455 26.2876L16.7034 26.6074L17.6446 26.1505C18.5766 25.7028 19.8284 25.118 20.6508 24.7434C20.8792 24.6429 21.4366 24.3779 21.8844 24.1677L22.7068 23.7748L22.4326 23.6651C21.9849 23.5007 20.7879 22.8976 20.7605 22.8153C20.7422 22.7788 20.6691 22.7514 20.596 22.7514C20.4224 22.7514 19.2436 22.194 19.2071 22.0935C19.1888 22.0569 19.1157 22.0204 19.0426 22.0204C18.9147 22.0204 18.8233 21.9838 18.3938 21.7645C18.2751 21.7006 18.1106 21.6183 18.0283 21.5726C17.7999 21.4539 14.3002 19.7543 13.2403 19.2426C12.756 19.0141 12.3265 18.8222 12.2717 18.8222C12.2169 18.8222 12.1255 18.7583 12.0615 18.6852C11.9976 18.6121 11.8971 18.5481 11.8331 18.5481C11.76 18.5481 11.0199 18.2192 10.1701 17.808C9.32941 17.3968 8.3517 16.9308 7.99534 16.7663C7.33743 16.4556 5.94853 15.7977 4.15757 14.9388C3.60932 14.6738 2.98797 14.3814 2.78695 14.2992C2.58592 14.2078 1.87319 13.8697 1.21529 13.559L0 12.9834V15.8526Z" fill="black"></path><path d="M0 26.1698V28.7649L0.338088 28.9202C0.529977 29.0024 1.30667 29.3771 2.05594 29.7517C2.81436 30.1172 3.52709 30.4644 3.65501 30.5101C3.78294 30.5649 3.94741 30.6472 4.02051 30.6929C4.16671 30.7842 6.32317 31.8259 6.68867 31.9813C6.79832 32.0269 6.96279 32.1092 7.0359 32.1549C7.15468 32.228 8.28774 32.7762 10.828 33.9824C11.1295 34.1286 12.226 34.6586 13.2677 35.1703C14.3094 35.6728 15.5155 36.2576 15.9633 36.4678L16.7582 36.8516L17.1329 36.6597C17.6172 36.413 19.5634 35.4809 20.6965 34.951C22.3413 34.1834 23.4834 33.6352 23.8307 33.4524C23.9129 33.3976 24.2784 33.2331 24.6256 33.0686C24.982 32.9133 25.7587 32.5387 26.3709 32.2462C26.974 31.9538 27.5222 31.7071 27.5771 31.7071C27.641 31.7071 27.6867 31.6614 27.6867 31.6158C27.6867 31.5609 27.7415 31.5244 27.8055 31.5244C27.8603 31.5244 28.2441 31.3599 28.637 31.1589C29.0299 30.9579 29.432 30.7934 29.5233 30.7934C29.6056 30.7934 29.697 30.7568 29.7152 30.7203C29.7426 30.6472 30.3457 30.3456 31.9813 29.5781C32.5753 29.304 32.7672 29.2126 33.1509 29.0116C33.3977 28.8745 33.3154 28.7831 32.7398 28.5547C32.5205 28.4633 32.3468 28.3628 32.3468 28.3171C32.3468 28.2714 32.2737 28.2349 32.1732 28.2349C32.027 28.2349 31.5062 28.0064 30.4736 27.4765C29.9254 27.1932 29.8614 27.1658 29.4685 27.0013C29.2675 26.9191 28.8289 26.718 28.4999 26.5536L27.8969 26.2612L27.1293 26.6175C26.709 26.8186 25.8044 27.248 25.1282 27.577C22.1585 28.9933 21.7656 29.1852 21.1991 29.441C20.8701 29.5964 20.4498 29.7974 20.2579 29.8888C20.0569 29.9893 19.8467 30.0624 19.7736 30.0624C19.7005 30.0624 19.6457 30.0898 19.6457 30.1263C19.6457 30.172 19.4264 30.3 19.1614 30.4187C17.7816 31.0492 17.471 31.1954 17.1329 31.369L16.7582 31.5518L15.4424 30.903C14.7114 30.5558 13.7703 30.0989 13.3408 29.8979C12.9113 29.706 12.0524 29.2948 11.4219 28.9842C9.38424 28.0064 7.55673 27.1384 7.52018 27.1384C7.49277 27.1384 6.78918 26.8094 5.95767 26.3982C3.39916 25.1647 1.22443 24.123 0.484289 23.794L0 23.5747V26.1698Z" fill="black"></path><path d="M140.06 26.6264C139.146 26.8731 138.616 27.6041 138.744 28.4539C138.863 29.2123 139.302 29.5412 140.7 29.9159C142.006 30.2631 142.271 30.4641 142.271 31.0855C142.271 32.182 140.535 32.4378 139.256 31.5241C138.927 31.2865 138.644 31.2865 138.571 31.5332C138.488 31.7891 138.717 32.0175 139.384 32.3465C140.06 32.6754 140.937 32.7851 141.614 32.6297C142.18 32.4927 142.765 32.0084 142.911 31.5606C143.057 31.1312 142.975 30.4733 142.756 30.1626C142.509 29.8428 141.787 29.4499 141.175 29.3219C140.407 29.1666 139.731 28.8833 139.576 28.664C139.384 28.3899 139.402 27.8508 139.622 27.5767C139.85 27.2843 140.508 27.0924 141.01 27.1746C141.23 27.2112 141.623 27.3391 141.879 27.467C142.454 27.7412 142.673 27.7229 142.71 27.3939C142.737 27.1838 142.673 27.1289 142.162 26.8822C141.476 26.5441 140.681 26.4528 140.06 26.6264Z" fill="black"></path><path d="M41.6398 26.6455C41.4936 26.8008 41.6306 27.2029 42.7728 29.8436C43.8145 32.2559 44.0064 32.6306 44.1983 32.6763C44.3536 32.722 44.4724 32.6854 44.5912 32.5666C44.8196 32.3199 47.0675 27.0476 47.0401 26.8283C47.0218 26.6821 46.9487 26.6364 46.7385 26.6364C46.4735 26.6364 46.4644 26.6638 45.4501 29.0852C44.8836 30.4376 44.3993 31.5615 44.3719 31.598C44.3445 31.6255 44.2988 31.6255 44.2714 31.598C44.244 31.5798 43.7688 30.4467 43.2023 29.0944C42.2611 26.8557 42.1515 26.6364 41.9413 26.609C41.8134 26.5907 41.6763 26.609 41.6398 26.6455Z" fill="black"></path><path d="M56.214 26.6622C56.1317 26.7262 56.1043 27.3841 56.1226 29.6593L56.15 32.5742H58.2425C60.0974 32.5742 60.3441 32.5559 60.4264 32.4189C60.4995 32.3092 60.4903 32.227 60.4081 32.1265C60.3076 31.9986 60.0152 31.9803 58.5166 31.9803H56.744V30.9295V29.8786L58.3704 29.8604L59.9878 29.833V29.6045V29.3761L58.3704 29.3487L56.744 29.3304V28.2796V27.2288L58.5532 27.2105L60.3533 27.1831L60.3807 26.9638C60.399 26.845 60.3624 26.7079 60.2893 26.6714C60.134 26.5709 56.3693 26.5709 56.214 26.6622Z" fill="black"></path><path d="M69.6458 26.6992C69.5635 26.7815 69.5361 27.5673 69.5361 29.6689C69.5361 32.3097 69.5453 32.529 69.7006 32.6112C69.8011 32.6661 69.9199 32.6661 70.0204 32.6112C70.1575 32.529 70.1758 32.3005 70.1758 30.1989C70.1758 28.9197 70.2032 27.8688 70.2489 27.8688C70.2854 27.8688 71.1535 28.9379 72.1769 30.2537C73.849 32.3919 74.0592 32.6295 74.2785 32.6021L74.5161 32.5747L74.5435 29.6233C74.5618 26.9551 74.5526 26.6718 74.4156 26.617C74.3333 26.5896 74.1963 26.5987 74.114 26.6536C73.9861 26.7358 73.9587 27.0647 73.9221 29.0476L73.8765 31.3411L72.0124 28.9654C70.1209 26.553 69.9473 26.3977 69.6458 26.6992Z" fill="black"></path><path d="M83.6628 26.7095C83.544 26.8008 83.5166 26.8922 83.5532 27.0293C83.6171 27.2212 83.672 27.2303 84.6223 27.2303H85.6182V29.8802C85.6182 32.3656 85.6274 32.5301 85.7919 32.6123C85.9106 32.6763 86.002 32.6763 86.1117 32.594C86.2396 32.4935 86.2579 32.1646 86.2761 29.8802L86.3036 27.276L87.2813 27.2486C88.1676 27.2303 88.259 27.2029 88.3138 27.0384C88.4509 26.6181 88.3047 26.5907 85.9929 26.5907C84.339 26.5907 83.7907 26.6181 83.6628 26.7095Z" fill="black"></path><path d="M97.2602 26.7175C97.2328 26.7906 97.2237 27.8049 97.2419 28.9745C97.2693 31.2954 97.2968 31.4142 97.8541 32.0081C98.3202 32.5198 98.7313 32.666 99.6908 32.666C100.65 32.666 100.952 32.5655 101.5 32.0447C102.067 31.5055 102.158 31.0487 102.158 28.7277C102.158 26.9094 102.14 26.6718 102.012 26.617C101.929 26.5896 101.792 26.5987 101.71 26.6535C101.582 26.7358 101.555 27.0373 101.518 28.7917C101.473 30.8202 101.473 30.8385 101.226 31.268C100.915 31.7888 100.385 32.0721 99.7091 32.0721C99.1425 32.0721 98.8136 31.9533 98.4755 31.6335C97.9364 31.1218 97.909 31.0121 97.8816 28.8283C97.8633 27.6221 97.8085 26.7723 97.7536 26.6992C97.6257 26.553 97.3242 26.5621 97.2602 26.7175Z" fill="black"></path><path d="M111.633 26.7275C111.496 26.8645 111.478 27.1752 111.478 29.6058C111.478 31.1043 111.505 32.3927 111.532 32.475C111.605 32.6668 112.081 32.6668 112.154 32.475C112.181 32.3927 112.209 31.881 112.209 31.3328V30.3368H113.067H113.936L114.804 31.4698C115.288 32.0912 115.726 32.6212 115.79 32.6486C115.973 32.7125 116.229 32.5389 116.229 32.3562C116.229 32.2648 115.882 31.7348 115.462 31.1866L114.685 30.1814L115.05 30.0718C115.535 29.9256 116.11 29.3499 116.193 28.9205C116.366 27.9702 116.037 27.2392 115.251 26.8554C114.858 26.6635 114.657 26.6361 113.296 26.6087C111.971 26.5721 111.77 26.5904 111.633 26.7275ZM114.95 27.4585C115.617 27.8514 115.754 28.7194 115.233 29.2494C114.886 29.5966 114.429 29.6972 113.241 29.6972H112.209V28.4544V27.2117L113.424 27.2483C114.429 27.2666 114.685 27.3031 114.95 27.4585Z" fill="black"></path><path d="M125.558 26.7171C125.485 26.7993 125.458 27.6674 125.476 29.705L125.504 32.5742H127.651C129.643 32.5742 129.798 32.5651 129.826 32.4097C129.899 32.0168 129.734 31.9803 127.87 31.9803H126.098V30.9295V29.8786L127.724 29.8604L129.341 29.833V29.6045V29.3761L127.724 29.3487L126.098 29.3304V28.2796V27.2288L127.907 27.2105L129.707 27.1831L129.734 26.9638C129.753 26.845 129.716 26.7079 129.643 26.6714C129.579 26.6257 128.656 26.5891 127.596 26.5891C126.07 26.5891 125.641 26.6166 125.558 26.7171Z" fill="black"></path></svg> 