<?xml version="1.0" encoding="UTF-8"?> <svg xmlns="http://www.w3.org/2000/svg" width="115" height="25" viewBox="0 0 115 25" fill="none"><path d="M7.82639 0.150316C5.10046 0.597538 3.08796 1.72624 1.92731 3.45124C1.19259 4.55865 0.915741 5.48504 0.915741 6.85865C0.915741 9.58458 2.00185 11.3309 4.47222 12.598C5.90972 13.3327 6.54861 13.5244 10.2222 14.3124C12.7245 14.8448 13.6403 15.1855 14.2898 15.8244C14.8755 16.3994 15.0991 17.2938 14.9074 18.3054C14.6412 19.6897 13.5444 20.4031 11.2551 20.648C7.41111 21.0739 5.05787 19.6684 4.82361 16.7934L4.75972 16.0693H2.38519H0V16.3781C0 16.6975 0.0958333 17.2299 0.383333 18.5184C0.468519 18.9017 0.766667 19.6684 1.03287 20.2221C1.44815 21.0846 1.66111 21.3721 2.49167 22.192C4.3338 24.0235 6.58056 24.8008 10.0519 24.8008C13.6296 24.8008 16.1106 24.0128 17.7931 22.3517C19.1241 21.042 19.731 19.5087 19.731 17.5068C19.7204 14.8235 18.5171 12.9068 15.9935 11.6184C14.556 10.873 13.6616 10.5962 10.6481 9.94661C7.59213 9.28643 6.96389 9.07347 6.33565 8.46652C5.29213 7.46559 5.45185 5.72995 6.64445 4.92069C7.35787 4.44152 8.0713 4.23921 9.37037 4.17532C12.5755 4.00495 14.588 5.31467 14.588 7.58272V8.29615L16.9625 8.27485L19.3264 8.24291L19.3051 7.41235C19.1986 4.03689 16.7708 1.34291 12.9375 0.352631C11.5852 0.00124208 9.29583 -0.0839431 7.82639 0.150316Z" fill="black"></path><path d="M33.8074 0.0966805C29.9208 0.607792 27.1416 2.64159 25.4592 6.17677C23.7662 9.72261 23.7449 15.0147 25.3847 18.5819C26.5347 21.0629 28.5898 23.0967 30.8046 23.9485C32.4977 24.6087 33.2856 24.7365 35.5111 24.7365C37.2574 24.7471 37.662 24.7152 38.4713 24.5022C41.3782 23.7675 43.5824 22.0638 44.9027 19.5189C45.3287 18.699 45.7972 17.3147 45.925 16.4629L45.9889 16.0689L43.6356 16.0902L41.2824 16.1221L41.112 16.761C40.718 18.1666 39.6319 19.5508 38.5032 20.0726C36.7676 20.8712 34.1162 20.8286 32.3699 19.9768C30.9324 19.274 29.825 17.7407 29.2606 15.6962C29.0477 14.9402 29.0264 14.5782 29.0264 12.4485C29.0264 9.71196 29.1435 9.06242 29.9208 7.4865C30.6342 6.01705 31.5926 5.15455 33.094 4.5902C34.0523 4.23881 36.3203 4.13233 37.3532 4.39853C39.387 4.92029 40.7926 6.38974 41.1333 8.35964L41.2504 9.04112H43.625H45.9995L45.9356 8.58325C45.8185 7.74205 45.4565 6.46427 45.1477 5.77214C44.2213 3.749 42.3472 1.86427 40.3027 0.937884C38.5565 0.149921 35.9796 -0.180171 33.8074 0.0966805Z" fill="black"></path><path d="M57.3403 0.437891C57.319 0.512428 56.6907 2.28002 55.9454 4.35641C50.7597 18.955 48.875 24.311 48.875 24.4388C48.875 24.5666 49.3009 24.5879 51.3028 24.5879H53.7306L54.5079 22.1601L55.2852 19.743H58.2241C61.312 19.743 61.9403 19.6791 63.8463 19.1573C64.2509 19.0402 64.6769 18.9444 64.7727 18.9444C64.9005 18.9444 65.156 19.5833 65.8588 21.7661L66.7745 24.5879H69.3194C71.4278 24.5879 71.875 24.5666 71.875 24.4388C71.875 24.3004 70.1287 19.3171 69.4898 17.624C69.3407 17.23 69.213 16.8147 69.213 16.7189C69.213 16.6231 69.4472 16.3888 69.7241 16.2078C70.0009 16.0161 70.6185 15.4837 71.1083 15.0365L71.9921 14.2059L71.2255 12.2147L70.4694 10.2342L69.8519 10.937C69.0532 11.874 68.0949 12.7684 67.9032 12.7684C67.7968 12.7684 67.0514 10.8092 65.5287 6.53928L63.3139 0.310113H60.3537C58.075 0.310113 57.3722 0.342057 57.3403 0.437891ZM61.4931 8.58372C62.1106 10.511 62.856 12.7897 63.1435 13.6629C63.4417 14.536 63.6546 15.2708 63.6333 15.2921C63.5375 15.3985 61.4718 15.8458 60.6412 15.9522C59.5019 16.0907 56.9782 16.1013 56.7653 15.9735C56.6481 15.899 56.9037 15.0259 58.0324 11.5865C58.7991 9.22261 59.5764 6.82678 59.7574 6.27308C60.1301 5.13372 60.1407 5.10178 60.2685 5.10178C60.3218 5.10178 60.8755 6.66706 61.4931 8.58372Z" fill="black"></path><path d="M77.3057 12.449V24.5879H85.2918H93.2779V22.5115V20.4351H87.6344H81.9908V10.3726V0.310113H79.6483H77.3057V12.449Z" fill="black"></path><path d="M98.1758 12.449V24.5879H106.588H115V22.5115V20.4351L108.909 20.4138L102.808 20.3819V17.2939V14.2059L108.345 14.1527L113.882 14.0995V12.0763V10.0532L108.345 9.99993L102.808 9.94669V7.23141V4.51613L108.909 4.48419L115 4.46289V2.3865V0.310113H106.588H98.1758V12.449Z" fill="black"></path></svg> 