<?xml version="1.0" encoding="UTF-8"?> <svg xmlns="http://www.w3.org/2000/svg" width="130" height="38" viewBox="0 0 130 38" fill="none"><path d="M29.0863 1.92903V3.85825H27.8991H26.7119V5.04547C26.7119 6.23268 26.7119 6.23268 27.8694 6.23268H29.027L29.1457 10.1208C29.2347 13.9496 29.2347 14.0089 30.0658 14.7213C30.7781 15.3149 31.2233 15.4336 32.9745 15.4336H35.0224V14.2761V13.0888L33.6274 12.9998L32.2028 12.9108L32.1137 9.55688L32.0247 6.23268H33.39H34.7256V5.04547V3.85825H33.39H32.0544V1.92903V-0.000194475H30.5704H29.0863V1.92903Z" fill="black"></path><path d="M17.957 4.39266C16.7402 5.13467 16.4137 5.60955 16.2059 6.82645C15.9388 8.31047 16.7995 9.58672 18.4616 10.1803C19.1443 10.4178 20.2721 10.8036 20.8954 11.0411C22.4981 11.5753 22.9137 12.3173 21.9936 13.089C21.6077 13.3858 21.0141 13.6529 20.658 13.6529C19.8566 13.6529 18.6991 12.8516 18.6991 12.2876C18.6991 11.9908 18.3132 11.8721 17.215 11.8721C15.5529 11.8721 15.4045 12.1392 16.1762 13.6529C16.7402 14.7214 17.9867 15.4041 19.8269 15.6415C22.884 15.9977 25.2287 14.484 25.2287 12.1689C25.2287 10.4475 24.3086 9.58672 21.5187 8.66663C19.5301 7.98398 19.1146 7.74654 19.0552 7.15293C18.8475 5.75796 21.1922 5.40179 22.231 6.70773C22.7356 7.33101 23.0027 7.44974 24.1306 7.3607L25.4662 7.27165L25.11 6.23284C24.6054 4.6301 23.1808 3.85841 20.8064 3.85841C19.4411 3.85841 18.5803 4.03649 17.957 4.39266Z" fill="black"></path><path d="M39.326 4.54135C36.3876 6.20345 35.6456 11.0117 37.9013 13.6829C40.1273 16.3245 44.4607 16.3245 46.6867 13.6829C49.0611 10.8336 48.2598 6.05505 45.1136 4.45231C43.4812 3.62126 40.8694 3.65094 39.326 4.54135ZM43.6 6.38153C44.7278 6.94546 45.2027 8.25139 45.0543 10.2993C44.9356 11.6646 44.7575 12.1098 44.1045 12.6738C42.0566 14.4249 39.4744 12.8222 39.4744 9.79477C39.4744 6.82673 41.4036 5.224 43.6 6.38153Z" fill="black"></path><path d="M50.7539 9.64592V15.4336H52.0895H53.4251V11.9907C53.4251 7.47926 53.9 6.55917 56.3338 6.52949H57.5804V5.19387C57.5804 3.94729 57.521 3.85825 56.779 3.85825C55.8589 3.85825 54.0187 4.86739 54.0187 5.34227C54.0187 5.49067 53.9 5.63907 53.7219 5.63907C53.5735 5.63907 53.4251 5.22355 53.4251 4.74866C53.4251 3.88793 53.3658 3.85825 52.0895 3.85825H50.7539V9.64592Z" fill="black"></path><path d="M59.6572 9.64592V15.4336H60.9928H62.3285V12.1688C62.3285 7.5683 62.9814 6.17332 65.2075 6.17332C66.8992 6.17332 67.0773 6.61853 67.0773 11.3377V15.4336H68.5613H70.0454V11.872C70.0454 7.80574 70.3718 6.79661 71.8262 6.26236C72.9243 5.9062 74.0225 6.23268 74.4677 7.09341C74.6458 7.4199 74.7942 9.3788 74.7942 11.5455V15.4336H76.1298H77.4654V10.9815C77.4654 5.99524 77.228 5.10483 75.6846 4.30346C74.6755 3.76921 72.3604 3.70985 71.4403 4.18474C71.0842 4.36282 70.4906 4.80802 70.1344 5.13451C69.5408 5.66875 69.4517 5.66875 69.2737 5.22355C68.7097 3.73953 65.0591 3.35369 63.575 4.60026C63.0705 5.01579 62.5956 5.34227 62.5065 5.34227C62.4175 5.34227 62.3285 5.01579 62.3285 4.60026C62.3285 3.91761 62.2097 3.85825 60.9928 3.85825H59.6572V9.64592Z" fill="black"></path><path d="M0 20.4795V32.6484H22.7055H45.411V31.3128V29.9772H24.0411H2.67123L2.73059 20.5388L2.81963 11.1302L7.36073 11.0411L11.8721 10.9521V9.64616V8.31054H5.93607H0V20.4795Z" fill="black"></path><path d="M50.7539 28.641V36.8031H52.0895C53.2174 36.8031 53.4251 36.714 53.4251 36.2095C53.4251 35.4675 53.4845 35.4675 54.7904 36.3579C57.2836 38.0497 60.4594 36.7437 61.5872 33.5679C62.5964 30.7186 61.6466 27.157 59.569 25.8807C58.2334 25.02 56.0073 25.02 54.6717 25.8214C54.1375 26.1478 53.6329 26.415 53.5735 26.415C53.4845 26.415 53.4251 25.0793 53.4251 23.4469V20.4789H52.0895H50.7539V28.641ZM57.5507 27.7506C58.6786 28.3145 59.1534 29.6204 59.005 31.6684C58.8863 33.0337 58.7082 33.4789 58.0553 34.0428C55.6512 36.0908 52.7722 33.2414 53.6923 29.7688C54.2562 27.6615 55.8292 26.8305 57.5507 27.7506Z" fill="black"></path><path d="M98.5391 28.6406V36.8027H99.8747H101.21V35.0813C101.21 33.6566 101.329 33.2411 101.893 32.7068C102.279 32.3507 102.665 32.0539 102.754 32.0539C102.843 32.0539 103.614 33.1224 104.475 34.4283L106.048 36.8027H107.651C108.868 36.8027 109.194 36.7137 109.046 36.4169C108.927 36.2388 107.888 34.6954 106.79 33.0036L104.742 29.9466L106.879 27.6612L109.016 25.3758L107.443 25.2868L105.87 25.1977L103.763 27.2753C102.605 28.4329 101.537 29.3826 101.418 29.3826C101.299 29.3826 101.21 27.3644 101.21 24.9306V20.4785H99.8747H98.5391V28.6406Z" fill="black"></path><path d="M64.7031 31.0151V36.8027H66.0091H67.315L67.4337 33.1224C67.5228 29.6794 67.5821 29.3826 68.2351 28.6703C68.799 28.0767 69.2442 27.8986 70.2534 27.8986H71.5296V26.563C71.5296 25.3164 71.4702 25.2274 70.7579 25.2274C69.7785 25.2274 68.8584 25.7023 68.057 26.6817L67.404 27.4534L67.3744 26.3256V25.2274H66.0387H64.7031V31.0151Z" fill="black"></path><path d="M75.3289 25.8207C73.7558 26.6518 72.9545 28.1358 72.7764 30.5696C72.6577 32.2614 72.7467 32.8253 73.3106 33.9828C74.2901 36.0011 75.8631 36.9509 78.1782 36.9212C80.3152 36.9212 81.7102 36.2979 82.5115 34.9326C83.3723 33.508 83.2832 33.2408 81.8883 33.2408C80.9385 33.2408 80.523 33.4189 80.0778 33.9828C79.217 35.081 77.4065 35.0217 76.249 33.8641C74.6166 32.202 74.9134 32.0536 79.4248 32.0536H83.491L83.3129 30.4212C83.1052 28.3436 82.0663 26.4737 80.7307 25.7614C79.3654 25.0491 76.7832 25.0787 75.3289 25.8207ZM79.87 28.0765C80.1965 28.3436 80.4339 28.8185 80.4339 29.1449C80.4339 29.6198 80.1668 29.6792 77.9111 29.6792C76.3084 29.6792 75.3883 29.5605 75.3883 29.3527C75.3883 29.1746 75.8038 28.6404 76.2787 28.1358C77.08 27.3641 77.3472 27.2454 78.2673 27.3938C78.8312 27.5125 79.5732 27.8093 79.87 28.0765Z" fill="black"></path><path d="M87.5273 25.9102C86.9634 26.2664 86.2808 27.0381 85.984 27.602L85.4794 28.6408L86.7853 28.7298C87.8538 28.7892 88.2397 28.6705 88.863 28.0769C89.8127 27.0974 91.089 27.0677 91.9497 27.9878C93.0776 29.1751 92.8105 29.6203 90.9109 29.828C88.2694 30.0951 87.1712 30.481 86.2511 31.4011C85.2716 32.4399 85.1232 34.2801 85.9246 35.497C87.0228 37.1591 89.8721 37.5152 91.7123 36.2093L92.6027 35.586V36.1796C92.6027 36.7139 92.7808 36.8029 93.9383 36.8029H95.2739V32.4993C95.2739 27.6614 95.0365 26.8006 93.4041 25.8212C91.9794 24.9604 88.8926 24.9901 87.5273 25.9102ZM92.484 32.5586C91.9497 34.8143 88.1506 35.6454 88.1506 33.5381C88.1506 32.4993 89.3378 31.9353 91.831 31.7869C92.6027 31.7572 92.662 31.8166 92.484 32.5586Z" fill="black"></path><path d="M113.38 25.4349C113.142 25.524 112.549 25.8801 112.074 26.2066C109.491 28.0171 109.462 33.8345 112.044 35.8527C114.507 37.782 118.306 37.2774 119.939 34.8436C120.8 33.5377 120.681 33.2409 119.197 33.2409C118.128 33.2409 117.802 33.3893 117.416 33.9829C117.03 34.5765 116.674 34.7249 115.635 34.7249C114.537 34.7249 114.211 34.5765 113.558 33.8048C112.163 32.1724 112.341 32.0536 116.615 32.0536C118.841 32.0536 120.533 31.9349 120.651 31.7568C120.948 31.282 120.236 28.1062 119.672 27.3048C118.603 25.8801 117.297 25.2272 115.487 25.2568C114.567 25.2568 113.617 25.3459 113.38 25.4349ZM117.327 28.2249C118.336 29.4715 118.039 29.6792 115.309 29.6792C112.697 29.6792 112.341 29.4715 113.172 28.4326C114.181 27.1564 116.348 27.0377 117.327 28.2249Z" fill="black"></path><path d="M123.174 31.0151V36.8027H124.658H126.142V33.3895C126.142 28.7594 126.587 27.8986 128.991 27.8986C130 27.8986 130 27.8986 130 26.563C130 25.4055 129.911 25.2274 129.377 25.2274C128.635 25.2274 127.685 25.7023 126.825 26.5036L126.142 27.0973V26.1772C126.142 25.2274 126.112 25.2274 124.658 25.2274H123.174V31.0151Z" fill="black"></path></svg> 