<?xml version="1.0" encoding="UTF-8"?> <svg xmlns="http://www.w3.org/2000/svg" width="117" height="51" viewBox="0 0 117 51" fill="none"><path d="M0 25.1746V50.3496H25.2786H50.5573V25.1746V-0.000446431H25.2786H0V25.1746ZM48.4162 25.1746V48.2085H25.2786H2.14109V25.1746V2.14064H25.2786H48.4162V25.1746Z" fill="black"></path><path d="M35.5693 23.9318V30.873H36.7435H37.9107L37.9314 27.6062C37.9522 24.4153 37.9522 24.3393 38.1041 24.0216C38.3182 23.5588 38.7602 23.1099 39.1816 22.9234C39.6719 22.7024 40.632 22.6955 41.0947 22.9027C41.5091 23.0961 41.8406 23.4345 42.0548 23.8973L42.2343 24.2771L42.255 27.5716L42.2758 30.873H43.443H44.6172V27.3299C44.6172 24.0216 44.6102 23.7453 44.479 23.248C44.2925 22.5228 43.9886 21.9703 43.5052 21.5144C43.0148 21.0448 42.5175 20.8099 41.7301 20.6718C40.4386 20.4439 39.3404 20.7961 38.4218 21.7216L37.9176 22.2396V19.6151V16.9905H36.7435H35.5693V23.9318Z" fill="black"></path><path d="M6.05718 18.0753C6.02956 18.096 6.00884 18.7176 6.00884 19.4566V20.7896H5.38723H4.76562V21.7911V22.7926H5.38032H6.00193L6.02265 25.8454C6.05028 28.7669 6.05718 28.9258 6.20222 29.354C6.47159 30.169 6.9965 30.6801 7.80459 30.9218C8.39856 31.1014 9.5658 31.0876 10.2219 30.8804C11.0922 30.6179 11.0507 30.6801 11.0507 29.5888C11.0507 28.7186 11.0438 28.6495 10.9333 28.6978C10.215 28.9948 9.28953 29.057 8.90276 28.8291C8.77843 28.7531 8.61267 28.5873 8.52979 28.4561C8.39856 28.2282 8.39166 28.0831 8.37094 25.5L8.35022 22.7926H9.70394H11.0507V21.7911V20.7896H9.70394H8.35712V19.4083V18.027H7.23133C6.60972 18.027 6.0779 18.0477 6.05718 18.0753Z" fill="black"></path><path d="M16.8176 20.6497C15.7125 20.8086 14.8906 21.2299 14.0894 22.0311C13.5991 22.5145 13.4402 22.7356 13.1708 23.2743C12.6874 24.2481 12.6045 24.6349 12.6045 25.8988C12.6045 26.8312 12.6252 27.0384 12.7633 27.4874C13.4195 29.5594 14.939 30.8164 17.1146 31.0789C18.2473 31.217 19.5803 30.9546 20.5058 30.4089C20.9893 30.1188 21.825 29.3867 21.825 29.2555C21.825 29.2072 21.5971 28.9654 21.3277 28.7306C21.0514 28.4889 20.7544 28.2333 20.6785 28.1642C20.5334 28.033 20.5265 28.033 20.0569 28.3922C19.4422 28.8549 18.9656 29.0621 18.2887 29.1657C17.2596 29.3108 16.2927 29.0069 15.6573 28.3231C15.305 27.9432 15.0149 27.3907 14.9459 26.9348L14.8975 26.6586H18.6133H22.3292L22.2877 25.7054C22.2325 24.1169 21.7973 22.9497 20.9133 21.9965C19.9809 20.9812 18.3095 20.4287 16.8176 20.6497ZM18.4614 22.7079C18.8482 22.8806 19.3455 23.3295 19.5665 23.7094C19.7391 24.0064 19.9187 24.5244 19.9878 24.9112L20.0292 25.1391H17.4392H14.8492L14.8906 24.9457C15.1669 23.7025 15.8921 22.8322 16.8798 22.5767C17.2389 22.48 18.1161 22.556 18.4614 22.7079Z" fill="black"></path><path d="M28.5525 20.6581C27.4405 20.8238 26.4529 21.328 25.6171 22.1706C25.1268 22.661 24.9679 22.882 24.6986 23.4208C24.2151 24.4015 24.0769 25.0369 24.1253 26.1075C24.1598 27.0744 24.3049 27.627 24.6986 28.3867C25.6793 30.2653 27.8066 31.3497 29.996 31.0803C31.2254 30.9353 32.2614 30.438 33.0833 29.6023L33.4632 29.2155L32.7725 28.5248L32.0818 27.8411L31.6674 28.1864C31.4395 28.3798 31.0182 28.6492 30.735 28.7942C30.2308 29.0359 30.1894 29.0428 29.4573 29.0428C28.4973 29.0359 28.0828 28.8909 27.4889 28.3384C26.7637 27.6684 26.4529 26.9156 26.4529 25.8243C26.4529 24.0907 27.5717 22.7784 29.1396 22.6748C30.0513 22.6127 30.7143 22.8544 31.5569 23.552L31.9575 23.8835L32.6689 23.1307L33.3803 22.3709L33.0764 22.0532C32.0266 20.962 30.2516 20.4163 28.5525 20.6581Z" fill="black"></path><path d="M67.831 20.6581C66.498 20.8929 65.3169 21.6941 64.6193 22.8475C64.2809 23.407 63.977 24.3601 63.8941 25.1544C63.6731 27.1159 64.3431 28.9531 65.6691 30.0512C66.4565 30.7074 67.2439 31.0113 68.3075 31.0596C69.1709 31.1011 69.6336 31.0182 70.2828 30.7074C70.7939 30.4657 71.2567 30.0996 71.6918 29.5954L71.9681 29.2777V31.5914V33.9121H73.1422H74.3164L74.3026 27.3645L74.2818 20.8239H73.1422H72.0026L71.9819 21.5629L71.9612 22.3088L71.5675 21.9013C71.0633 21.3902 70.5246 21.0449 69.8753 20.8239C69.2883 20.6305 68.3973 20.5545 67.831 20.6581ZM70.2483 22.8821C71.4984 23.4829 72.1615 24.8229 71.9681 26.3561C71.754 28.0207 70.4141 29.1879 68.8601 29.0567C67.3129 28.9255 66.2355 27.6201 66.2355 25.8727C66.2355 24.8298 66.5049 24.07 67.0919 23.4829C67.6997 22.8683 68.273 22.6472 69.2054 22.6749C69.751 22.6956 69.9306 22.7301 70.2483 22.8821Z" fill="black"></path><path d="M111.44 20.6577C109.417 20.9685 107.87 22.4672 107.359 24.6014C107.193 25.3266 107.207 26.5906 107.393 27.3089C107.884 29.1599 109.175 30.4514 111.033 30.9487C111.447 31.0592 111.786 31.0938 112.442 31.0938C113.416 31.0938 114.065 30.9625 114.825 30.5965C115.322 30.3547 116.241 29.6572 116.427 29.3809C116.545 29.1944 116.545 29.1944 116.33 29.0148C116.22 28.9181 115.916 28.6557 115.661 28.4278L115.205 28.0203L114.977 28.2067C114.21 28.8352 113.568 29.1253 112.767 29.1875C111.827 29.2704 110.985 28.9872 110.411 28.4139C110.073 28.0824 109.721 27.4263 109.617 26.9497L109.555 26.6596H113.278H117V25.9759C117 23.3375 115.619 21.3069 113.45 20.7544C112.925 20.6231 111.958 20.5748 111.44 20.6577ZM113.229 22.7642C113.92 23.1027 114.486 23.9038 114.638 24.7741L114.7 25.1401H112.117H109.527L109.576 24.9122C109.824 23.7381 110.536 22.8678 111.461 22.6054C111.972 22.4603 112.753 22.5294 113.229 22.7642Z" fill="black"></path><path d="M57.0707 20.7548C55.1575 21.1692 54.0939 22.8544 54.6326 24.6087C54.9365 25.5895 55.6755 26.1006 57.7752 26.7636C59.5226 27.3162 59.8817 27.551 59.8817 28.145C59.8817 28.5179 59.6607 28.8633 59.2947 29.0429C58.8803 29.2501 57.6785 29.2362 57.0224 29.0221C56.4974 28.8426 55.7722 28.4972 55.3717 28.221C55.2266 28.1243 55.0816 28.0414 55.0539 28.0414C55.0194 28.0414 54.7708 28.3867 54.4876 28.808L53.9834 29.5747L54.1492 29.699C56.1659 31.2254 59.3223 31.5224 60.8832 30.3344C61.3598 29.9753 61.712 29.4849 61.8916 28.9254C62.009 28.5387 62.0366 28.3453 62.009 27.8204C61.9745 27.0192 61.8156 26.6462 61.3114 26.1558C60.8142 25.6724 60.2133 25.3685 58.8319 24.9057C57.4989 24.4637 57.0707 24.2634 56.8152 23.9664C56.4767 23.5589 56.6494 22.9373 57.1743 22.6818C57.3746 22.5782 57.5887 22.5505 58.1205 22.5505C58.901 22.5505 59.3776 22.6818 60.31 23.1445C60.607 23.2965 60.8625 23.4139 60.8763 23.4139C60.897 23.4139 61.1111 23.0547 61.3667 22.6127C61.8847 21.6872 61.9054 21.7908 61.0904 21.3902C59.7781 20.741 58.2449 20.4992 57.0707 20.7548Z" fill="black"></path><path d="M92.1708 20.6924C90.9966 20.8512 89.5393 21.2656 89.2423 21.5212C89.2216 21.5419 89.781 23.2824 89.8294 23.3377C89.8432 23.3515 90.078 23.2824 90.3543 23.1788C92.157 22.5365 93.8698 22.6194 94.6503 23.386C94.9611 23.6968 95.1752 24.2148 95.1752 24.6637V25.0436L94.5398 24.8779C93.6833 24.6568 92.081 24.5878 91.2729 24.7466C89.8363 25.0229 88.9591 25.6583 88.5171 26.7565C88.4066 27.0397 88.379 27.2676 88.3721 27.9444C88.3721 28.7663 88.3721 28.7802 88.6276 29.2913C89.0627 30.1684 89.7741 30.7002 90.893 30.9834C91.5008 31.1354 92.744 31.087 93.3864 30.8798C93.8836 30.721 94.5122 30.3411 94.9197 29.9612L95.1752 29.7195V30.2927V30.8729H96.3563H97.5304L97.5097 27.3988C97.482 24.0352 97.4751 23.9178 97.3232 23.4136C96.9088 22.0323 96.0593 21.2173 94.6296 20.8512C94.1254 20.72 92.6681 20.6233 92.1708 20.6924ZM94.2497 26.4181C94.5467 26.4733 94.8989 26.5562 95.0233 26.5976L95.2581 26.6736L95.2305 27.24C95.1959 27.8685 95.0923 28.1102 94.6848 28.5591C94.1185 29.1738 92.8891 29.4916 91.9567 29.2636C91.0795 29.0426 90.6858 28.6075 90.6858 27.8408C90.6858 27.606 90.7273 27.3297 90.7825 27.2261C90.9828 26.8463 91.4594 26.5148 91.9774 26.3904C92.3987 26.2937 93.6695 26.3076 94.2497 26.4181Z" fill="black"></path><path d="M104.982 20.7478C104.14 20.9826 103.325 21.6526 102.828 22.5159L102.565 22.9648V21.8736V20.7892L101.412 20.803L100.251 20.8238L100.231 25.8449L100.217 30.873H101.384H102.551L102.586 28.435C102.62 25.7344 102.641 25.5825 103.097 24.7122C103.573 23.8006 104.395 23.2618 105.528 23.1237L106.157 23.0477V21.846V20.6511L105.728 20.658C105.487 20.658 105.155 20.6994 104.982 20.7478Z" fill="black"></path><path d="M77.0791 24.3661C77.0791 27.6813 77.086 27.9852 77.2103 28.4687C77.3899 29.1663 77.6385 29.6428 78.0668 30.0918C78.4604 30.5131 79.1511 30.886 79.752 31.0104C80.3184 31.1278 81.4442 31.0656 81.9345 30.886C82.4594 30.6996 83.1432 30.2023 83.4955 29.7602L83.7786 29.4011V30.1401V30.8722H84.9528H86.1269V25.8303V20.7884L84.9735 20.8022L83.8132 20.8229L83.7786 24.0691L83.7441 27.3153L83.5645 27.6951C83.309 28.2408 83.0672 28.4894 82.563 28.738C82.1694 28.9314 82.0519 28.9591 81.5478 28.9591C80.6084 28.9591 79.9799 28.5792 79.6208 27.7987C79.4619 27.4603 79.4619 27.4119 79.4274 24.1382L79.3929 20.8229L78.2394 20.8022L77.0791 20.7884V24.3661Z" fill="black"></path><path d="M113.146 36.2325C112.683 36.3568 112.566 36.419 112.221 36.7298C111.737 37.1649 111.544 37.7727 111.682 38.4288C111.848 39.23 112.345 39.596 113.823 39.9897C114.258 40.1071 114.728 40.266 114.866 40.3489C115.301 40.5906 115.405 41.0672 115.094 41.4332C114.624 41.9996 113.222 41.8545 112.345 41.1501L112.076 40.936L111.91 41.1362C111.82 41.2468 111.661 41.4401 111.558 41.5645L111.378 41.7993L111.551 41.9305C112.704 42.8422 114.389 43.0839 115.501 42.49C116.53 41.9374 116.772 40.5146 115.964 39.7066C115.612 39.3543 115.246 39.1955 114.168 38.9054C113.319 38.6775 113.015 38.5255 112.877 38.2354C112.587 37.6138 113.236 37.0751 114.141 37.1925C114.493 37.2339 115.273 37.5586 115.487 37.7519C115.591 37.8486 115.632 37.8141 115.916 37.4204C116.206 37.0129 116.22 36.9784 116.116 36.861C115.936 36.6607 115.204 36.3361 114.686 36.2256C114.085 36.1012 113.623 36.1012 113.146 36.2325Z" fill="black"></path><path d="M54.6598 36.3074C54.6805 36.3764 55.2883 37.8476 55.9997 39.5742L57.305 42.7168H57.8438H58.3756L59.6809 39.5742C60.3992 37.8476 61.0001 36.3764 61.0278 36.3074C61.0623 36.1968 61.0139 36.183 60.4338 36.2038L59.8053 36.2245L58.8452 38.6625C58.3203 40.0094 57.8783 41.1144 57.8645 41.1282C57.8507 41.1421 57.4086 40.0439 56.8768 38.6902L55.9099 36.2245L55.2675 36.2038C54.6736 36.183 54.6252 36.1968 54.6598 36.3074Z" fill="black"></path><path d="M63.8184 39.4713V42.752H65.7177H67.6171V42.2339V41.7159H66.3048H64.9925V40.7145V39.713H65.8904H66.7883V39.195V38.677H65.8904H64.9925V37.9863V37.2956H66.3048H67.6171V36.7431V36.1906H65.7177H63.8184V39.4713Z" fill="black"></path><path d="M71.1044 36.2743C71.0836 36.3227 71.0767 37.7938 71.0836 39.5412L71.1044 42.7183L71.6707 42.739L72.244 42.7598L72.2578 40.4667L72.2785 38.1737L74.0604 40.4667L75.8424 42.7529H76.3189H76.8024V39.4722V36.1846L76.2361 36.2053L75.6628 36.226L75.6283 38.4223L75.5937 40.6118L73.874 38.4016L72.1542 36.1915H71.6431C71.2978 36.1915 71.1251 36.2191 71.1044 36.2743Z" fill="black"></path><path d="M79.6138 36.2389C79.5861 36.2596 79.5654 36.5083 79.5654 36.7914V37.2956H80.6014H81.6374V40.0238V42.752H82.2245H82.8116V40.0238V37.2956H83.8476H84.8905L84.8698 36.7569L84.8491 36.2251L82.2521 36.2044C80.8294 36.1975 79.6414 36.2113 79.6138 36.2389Z" fill="black"></path><path d="M87.605 36.2871C87.5843 36.3423 87.5774 37.3507 87.5912 38.518C87.6188 40.4726 87.6326 40.6798 87.7707 41.1011C88.1644 42.289 89.1383 42.8761 90.5818 42.807C91.452 42.7587 91.9217 42.5722 92.419 42.068C92.6814 41.7987 92.861 41.5362 92.9715 41.2599C93.1304 40.8593 93.1373 40.7972 93.158 38.518L93.1787 36.1835L92.6055 36.2042L92.0322 36.2249L91.9977 38.4696C91.9631 40.6383 91.9562 40.7212 91.8043 41.0044C91.5073 41.5638 90.7545 41.8677 90.05 41.7158C89.5112 41.6053 89.2143 41.3773 88.9794 40.9077L88.786 40.5071L88.7653 38.3453L88.7377 36.1904H88.1921C87.7777 36.1904 87.6326 36.218 87.605 36.2871Z" fill="black"></path><path d="M96.5557 39.4644V42.752H97.1427H97.7298V41.6123V40.4658L98.4343 40.4865L99.1457 40.5073L99.9331 41.6262L100.727 42.752H101.404C101.777 42.752 102.081 42.7381 102.081 42.7243C102.081 42.7105 101.694 42.1649 101.218 41.5018L100.354 40.3001L100.672 40.1481C101.169 39.9064 101.411 39.6923 101.632 39.2917C101.819 38.9533 101.839 38.8566 101.839 38.2971C101.839 37.7308 101.819 37.641 101.625 37.2956C101.487 37.047 101.301 36.8398 101.086 36.6948C100.499 36.2942 100.23 36.2458 98.3031 36.2113L96.5557 36.1767V39.4644ZM100.168 37.4614C100.679 37.7169 100.852 38.4836 100.513 38.9463C100.216 39.34 100.002 39.4022 98.8211 39.4229L97.7298 39.4505V38.3662V37.2887L98.8211 37.3095C99.712 37.3233 99.9538 37.3509 100.168 37.4614Z" fill="black"></path><path d="M104.892 36.2389C104.864 36.2596 104.844 37.7377 104.844 39.5196V42.752L106.764 42.7381L108.677 42.7174L108.698 42.2132L108.718 41.7159H107.365H106.018V40.7145V39.713H106.916H107.814V39.195V38.677H106.916H106.018V37.9863V37.2956L107.351 37.2818L108.677 37.2611V36.7431V36.2251L106.805 36.2044C105.776 36.1975 104.92 36.2113 104.892 36.2389Z" fill="black"></path></svg> 