<?xml version="1.0" encoding="UTF-8"?>
<svg width="355px" height="637px" viewBox="0 0 355 637" version="1.1" xmlns="http://www.w3.org/2000/svg" xmlns:xlink="http://www.w3.org/1999/xlink">
    <title>Partner Led Growth Mobile</title>
    <g id="Design" stroke="none" stroke-width="1" fill="none" fill-rule="evenodd">
        <g id="MOBILE_Home" transform="translate(-20.000000, -1364.000000)">
            <g id="Group-23" transform="translate(-13.000000, 850.000000)">
                <g id="Partner-Led-Growth-Mobile" transform="translate(33.000000, 514.000000)">
                    <g id="Asset-76">
                        <polygon id="Fill-2" fill="#E4E3D8" points="154.41 288.97 139.47 300.47 195.73 288.97"></polygon>
                        <polygon id="Fill-1" fill="#097182" points="0 300.35 140.23 300.35 140.23 31.9 0 31.9"></polygon>
                        <polygon id="Fill-2-2" fill="#052929" points="155.17 20.5 140.23 32 140.23 300.45 155.17 288.95"></polygon>
                        <polygon id="Fill-3" fill="#075860" points="14.93 20.41 0 31.9 140.23 31.9 155.17 20.41"></polygon>
                        <g id="Firm" transform="translate(67.120000, 0.000000)" fill="#000000" fill-rule="nonzero" font-family="Aeonik-Regular, Aeonik" font-size="9.5" font-weight="normal">
                            <g id="Group">
                                <text id="FIRM">
                                    <tspan x="0" y="10">FIRM</tspan>
                                </text>
                            </g>
                        </g>
                        <g id="Group-6-Copy-2" transform="translate(0.650000, 32.340000)" stroke="#097D90" stroke-linecap="square" stroke-width="0.57">
                            <line x1="120.42" y1="-1.42108547e-14" x2="120.42" y2="267.03" id="Line-3-Copy-9"></line>
                            <line x1="87.06" y1="-1.42108547e-14" x2="87.06" y2="267.03" id="Line-3-Copy-10"></line>
                            <line x1="52.24" y1="-1.42108547e-14" x2="52.24" y2="267.03" id="Line-3-Copy-11"></line>
                            <line x1="18.16" y1="-1.42108547e-14" x2="18.16" y2="267.03" id="Line-3-Copy-12"></line>
                            <line x1="-5.66213743e-15" y1="89.16" x2="139.3" y2="89.16" id="Line-3-Copy-4"></line>
                            <line x1="-5.66213743e-15" y1="223.4" x2="139.3" y2="223.4" id="Line-3-Copy-6"></line>
                            <line x1="-5.66213743e-15" y1="44.86" x2="139.3" y2="44.86" id="Line-3-Copy-3"></line>
                            <line x1="-5.66213743e-15" y1="178.43" x2="139.3" y2="178.43" id="Line-3-Copy-7"></line>
                            <line x1="-5.66213743e-15" y1="134.13" x2="139.3" y2="134.13" id="Line-3-Copy-5"></line>
                        </g>
                        <ellipse id="Oval-Copy-14" fill="#097D90" fill-rule="nonzero" cx="121.31" cy="77.22" rx="3.42" ry="3.71"></ellipse>
                        <ellipse id="Oval-Copy-15" fill="#097D90" fill-rule="nonzero" cx="87.69" cy="77.22" rx="3.42" ry="3.71"></ellipse>
                        <ellipse id="Oval-Copy-16" fill="#097D90" fill-rule="nonzero" cx="52.89" cy="77.22" rx="3.42" ry="3.71"></ellipse>
                        <ellipse id="Oval-Copy-17" fill="#097D90" fill-rule="nonzero" cx="18.71" cy="77.22" rx="3.42" ry="3.71"></ellipse>
                        <g id="Group-11-Copy-11" transform="translate(15.290000, 117.980000)" fill="#097D90" fill-rule="nonzero">
                            <ellipse id="Oval-Copy-14-2" cx="106.02" cy="3.7" rx="3.42" ry="3.7"></ellipse>
                            <ellipse id="Oval-Copy-15-2" cx="72.4" cy="3.7" rx="3.42" ry="3.7"></ellipse>
                            <ellipse id="Oval-Copy-16-2" cx="38.19" cy="3.7" rx="3.42" ry="3.7"></ellipse>
                            <ellipse id="Oval-Copy-17-2" cx="3.42" cy="3.7" rx="3.42" ry="3.7"></ellipse>
                            <ellipse id="Oval-Copy-14-3" cx="106.02" cy="48.49" rx="3.42" ry="3.7"></ellipse>
                            <ellipse id="Oval-Copy-17-3" cx="3.42" cy="48.49" rx="3.42" ry="3.7"></ellipse>
                        </g>
                        <g id="Group-11-Copy-12" transform="translate(15.290000, 206.900000)" fill="#097D90" fill-rule="nonzero">
                            <ellipse id="Oval-Copy-14-4" cx="106.02" cy="3.7" rx="3.42" ry="3.7"></ellipse>
                            <ellipse id="Oval-Copy-15-3" cx="72.4" cy="3.7" rx="3.42" ry="3.7"></ellipse>
                            <ellipse id="Oval-Copy-16-3" cx="38.19" cy="3.7" rx="3.42" ry="3.7"></ellipse>
                            <ellipse id="Oval-Copy-17-4" cx="3.42" cy="3.7" rx="3.42" ry="3.7"></ellipse>
                        </g>
                        <g id="Group-11-Copy-13" transform="translate(15.290000, 251.350000)" fill="#097D90" fill-rule="nonzero">
                            <ellipse id="Oval-Copy-14-5" cx="106.02" cy="3.71" rx="3.42" ry="3.71"></ellipse>
                            <ellipse id="Oval-Copy-15-4" cx="72.4" cy="3.71" rx="3.42" ry="3.71"></ellipse>
                            <ellipse id="Oval-Copy-16-4" cx="37.6" cy="3.71" rx="3.42" ry="3.71"></ellipse>
                            <ellipse id="Oval-Copy-17-5" cx="3.42" cy="3.71" rx="3.42" ry="3.71"></ellipse>
                        </g>
                        <g id="Group-12-Copy-2" transform="translate(33.820000, 104.860000)">
                            <path d="M15.39,90.63 L57,90.63 C65.5,90.63 72.39,97.52 72.39,106.02 L72.39,106.02 C72.39,114.52 65.5,121.41 57,121.41 L15.39,121.41 C6.89,121.41 0,114.52 0,106.02 L0,106.02 C0,97.52 6.89,90.63 15.39,90.63 Z" id="Rectangle" stroke="#FFFFFF" stroke-width="0.57" fill="#097182"></path>
                            <path d="M15.39,0 L57,0 C65.5,0 72.39,6.89 72.39,15.39 L72.39,15.39 C72.39,23.89 65.5,30.78 57,30.78 L15.39,30.78 C6.89,30.78 0,23.89 0,15.39 L0,15.39 C0,6.89 6.89,0 15.39,0 Z" id="Rectangle-Copy" stroke="#FFFFFF" stroke-width="0.57" fill="#097182"></path>
                            <g id="Associates" transform="translate(8.490000, 100.010000)" fill="#FFFFFF" fill-rule="nonzero" font-family="Aeonik-Regular, Aeonik" font-size="9.5" font-weight="normal">
                                <g id="Group">
                                    <text id="A">
                                        <tspan x="0" y="10">A</tspan>
                                    </text>
                                    <text id="S">
                                        <tspan x="6.01" y="10">S</tspan>
                                    </text>
                                    <text id="SOCI">
                                        <tspan x="11.66" y="10">SOCI</tspan>
                                    </text>
                                    <text id="A">
                                        <tspan x="33.43" y="10">A</tspan>
                                    </text>
                                    <text id="TES">
                                        <tspan x="38.73" y="10">TES</tspan>
                                    </text>
                                </g>
                            </g>
                            <g id="Parners" transform="translate(14.810000, 9.380000)" fill="#FFFFFF" fill-rule="nonzero" font-family="Aeonik-Regular, Aeonik" font-size="9.5" font-weight="normal">
                                <g id="Group" transform="translate(0.000000, 0.000000)">
                                    <text id="P">
                                        <tspan x="0" y="10">P</tspan>
                                    </text>
                                    <text id="A">
                                        <tspan x="4.78" y="10">A</tspan>
                                    </text>
                                    <text id="R">
                                        <tspan x="11.03" y="10">R</tspan>
                                    </text>
                                    <text id="TNE">
                                        <tspan x="16.47" y="10">TNE</tspan>
                                    </text>
                                    <text id="R">
                                        <tspan x="33.81" y="10">R</tspan>
                                    </text>
                                    <text id="S">
                                        <tspan x="39.55" y="10">S</tspan>
                                    </text>
                                </g>
                            </g>
                        </g>
                        <polygon id="Fill-2-Copy-4" fill="#E4E3D8" points="331.42 288.97 316.48 300.47 372.74 288.97"></polygon>
                        <g id="Group-18" transform="translate(176.790000, 0.000000)">
                            <polygon id="Fill-1-2" fill="#C37226" points="2.84217094e-14 300.35 140.24 300.35 140.24 31.9 2.84217094e-14 31.9"></polygon>
                            <polygon id="Fill-2-3" fill="#351D0A" points="155.17 20.41 140.24 31.9 140.24 300.45 155.17 288.95"></polygon>
                            <polygon id="Fill-3-2" fill="#5E3315" points="14.94 20.41 2.84217094e-14 31.9 140.24 31.9 155.17 20.41"></polygon>
                            <g id="Group-16-Copy" transform="translate(0.650000, 32.240000)" stroke="#D67B28" stroke-linecap="square" stroke-width="0.57">
                                <g id="Group-6-Copy-2-2">
                                    <line x1="120.42" y1="7.10542736e-15" x2="120.42" y2="267.13" id="Line-3-Copy-9-2"></line>
                                    <line x1="87.06" y1="7.10542736e-15" x2="87.06" y2="267.13" id="Line-3-Copy-10-2"></line>
                                    <line x1="52.25" y1="7.10542736e-15" x2="52.25" y2="267.13" id="Line-3-Copy-11-2"></line>
                                    <line x1="18.16" y1="7.10542736e-15" x2="18.16" y2="267.13" id="Line-3-Copy-12-2"></line>
                                    <line x1="0" y1="89.26" x2="139.31" y2="89.26" id="Line-3-Copy-4-2"></line>
                                    <line x1="0" y1="223.5" x2="139.31" y2="223.5" id="Line-3-Copy-6-2"></line>
                                    <line x1="0" y1="44.96" x2="139.31" y2="44.96" id="Line-3-Copy-3-2"></line>
                                    <line x1="0" y1="178.53" x2="139.31" y2="178.53" id="Line-3-Copy-7-2"></line>
                                    <line x1="0" y1="134.23" x2="139.31" y2="134.23" id="Line-3-Copy-5-2"></line>
                                </g>
                            </g>
                            <g id="FUND" transform="translate(65.560000, -0.000000)" fill="#000000" fill-rule="nonzero" font-family="Aeonik-Regular, Aeonik" font-size="9.5" font-weight="normal">
                                <g id="Group" transform="translate(-0.000000, 0.000000)">
                                    <text id="FUND">
                                        <tspan x="0" y="10">FUND</tspan>
                                    </text>
                                </g>
                            </g>
                            <g id="Group-11-Copy-5" transform="translate(15.300000, 73.510000)" fill="#D67B28" fill-rule="nonzero">
                                <ellipse id="Oval-Copy-14-6" cx="106.02" cy="3.71" rx="3.42" ry="3.71"></ellipse>
                                <ellipse id="Oval-Copy-15-5" cx="72.39" cy="3.71" rx="3.42" ry="3.71"></ellipse>
                                <ellipse id="Oval-Copy-16-5" cx="37.6" cy="3.71" rx="3.42" ry="3.71"></ellipse>
                                <ellipse id="Oval-Copy-17-6" cx="3.42" cy="3.71" rx="3.42" ry="3.71"></ellipse>
                            </g>
                            <g id="Group-11-Copy-6" transform="translate(15.580000, 162.440000)" fill="#D67B28" fill-rule="nonzero">
                                <ellipse id="Oval-Copy-14-7" cx="106.02" cy="3.7" rx="3.42" ry="3.7"></ellipse>
                                <ellipse id="Oval-Copy-15-6" cx="72.39" cy="3.7" rx="3.42" ry="3.7"></ellipse>
                                <ellipse id="Oval-Copy-16-6" cx="38.19" cy="3.7" rx="3.42" ry="3.7"></ellipse>
                                <ellipse id="Oval-Copy-17-7" cx="3.42" cy="3.7" rx="3.42" ry="3.7"></ellipse>
                            </g>
                            <g id="Group-11-Copy-7" transform="translate(15.300000, 117.980000)" fill="#D67B28" fill-rule="nonzero">
                                <ellipse id="Oval-Copy-14-8" cx="106.02" cy="3.7" rx="3.42" ry="3.7"></ellipse>
                                <ellipse id="Oval-Copy-15-7" cx="72.39" cy="3.7" rx="3.42" ry="3.7"></ellipse>
                                <ellipse id="Oval-Copy-16-7" cx="37.6" cy="3.7" rx="3.42" ry="3.7"></ellipse>
                                <ellipse id="Oval-Copy-17-8" cx="3.42" cy="3.7" rx="3.42" ry="3.7"></ellipse>
                            </g>
                            <g id="Group-11-Copy-8" transform="translate(15.300000, 206.900000)" fill="#D67B28" fill-rule="nonzero">
                                <ellipse id="Oval-Copy-14-9" cx="106.02" cy="3.7" rx="3.42" ry="3.7"></ellipse>
                                <ellipse id="Oval-Copy-15-8" cx="72.39" cy="3.7" rx="3.42" ry="3.7"></ellipse>
                                <ellipse id="Oval-Copy-16-8" cx="37.6" cy="3.7" rx="3.42" ry="3.7"></ellipse>
                                <ellipse id="Oval-Copy-17-9" cx="3.42" cy="3.7" rx="3.42" ry="3.7"></ellipse>
                            </g>
                            <g id="Group-11-Copy-9" transform="translate(15.300000, 251.350000)" fill="#D67B28" fill-rule="nonzero">
                                <ellipse id="Oval-Copy-14-10" cx="106.02" cy="3.71" rx="3.42" ry="3.71"></ellipse>
                                <ellipse id="Oval-Copy-15-9" cx="72.39" cy="3.71" rx="3.42" ry="3.71"></ellipse>
                                <ellipse id="Oval-Copy-16-9" cx="37.6" cy="3.71" rx="3.42" ry="3.71"></ellipse>
                                <ellipse id="Oval-Copy-17-10" cx="3.42" cy="3.71" rx="3.42" ry="3.71"></ellipse>
                            </g>
                        </g>
                        <polygon id="Fill-2-Copy-3" fill="#E4E3D8" points="331.42 624.61 316.48 636.11 372.74 624.61"></polygon>
                        <g id="Group-4-Copy" transform="translate(0.000000, 356.050000)">
                            <polygon id="Fill-1-3" fill="#3C7BD6" points="0 279.94 317.31 279.94 317.31 11.49 0 11.49"></polygon>
                            <polygon id="Fill-2-4" fill="#112340" points="332.25 0 317.31 11.49 317.31 280.03 332.25 268.54"></polygon>
                            <polygon id="Fill-3-3" fill="#112340" points="14.93 0 0 11.49 317.31 11.49 332.25 0"></polygon>
                        </g>
                        <g id="Group-16" transform="translate(0.360000, 367.760000)" stroke="#4287EA" stroke-linecap="square" stroke-width="0.57">
                            <g id="Group-6-Copy-2-3">
                                <line x1="226.37" y1="-5.68434189e-14" x2="226.37" y2="267.25" id="Line-3-Copy-9-3"></line>
                                <line x1="192.28" y1="-5.68434189e-14" x2="192.28" y2="267.25" id="Line-3-Copy-10-3"></line>
                                <line x1="158.19" y1="-5.68434189e-14" x2="158.19" y2="267.25" id="Line-3-Copy-11-3"></line>
                                <line x1="294.54" y1="-5.68434189e-14" x2="294.54" y2="267.25" id="Line-3-Copy-9-4"></line>
                                <line x1="260.45" y1="-5.68434189e-14" x2="260.45" y2="267.25" id="Line-3-Copy-10-4"></line>
                                <line x1="124.11" y1="-5.68434189e-14" x2="124.11" y2="267.25" id="Line-3-Copy-12-3"></line>
                                <line x1="90.02" y1="-5.68434189e-14" x2="90.02" y2="267.25" id="Line-3-Copy-10-5"></line>
                                <line x1="55.94" y1="-5.68434189e-14" x2="55.94" y2="267.25" id="Line-3-Copy-11-4"></line>
                                <line x1="21.85" y1="-5.68434189e-14" x2="21.85" y2="267.25" id="Line-3-Copy-12-4"></line>
                                <line x1="-1.36557432e-14" y1="89.38" x2="316.38" y2="89.38" id="Line-3-Copy-4-3"></line>
                                <line x1="-1.36557432e-14" y1="223.62" x2="316.38" y2="223.62" id="Line-3-Copy-6-3"></line>
                                <line x1="-1.36557432e-14" y1="45.08" x2="316.38" y2="45.08" id="Line-3-Copy-3-3"></line>
                                <line x1="-1.36557432e-14" y1="178.65" x2="316.38" y2="178.65" id="Line-3-Copy-7-3"></line>
                                <line x1="-1.36557432e-14" y1="134.35" x2="316.38" y2="134.35" id="Line-3-Copy-5-3"></line>
                            </g>
                        </g>
                        <g id="Group-11" transform="translate(18.710000, 409.160000)" fill="#FEFEFB" fill-rule="nonzero">
                            <ellipse id="Oval-Copy-14-11" cx="105.52" cy="3.7" rx="3.42" ry="3.7"></ellipse>
                            <ellipse id="Oval-Copy-15-10" cx="71.67" cy="3.7" rx="3.42" ry="3.7"></ellipse>
                            <ellipse id="Oval-Copy-16-10" cx="37.6" cy="3.7" rx="3.42" ry="3.7"></ellipse>
                            <ellipse id="Oval-Copy-17-11" cx="3.42" cy="3.7" rx="3.42" ry="3.7"></ellipse>
                        </g>
                        <g id="Group-11-2" transform="translate(155.170000, 409.160000)" fill="#FEFEFB" fill-rule="nonzero">
                            <ellipse id="Oval-Copy-14-12" cx="105.52" cy="3.7" rx="3.42" ry="3.7"></ellipse>
                            <ellipse id="Oval-Copy-14-13" cx="139.73" cy="3.7" rx="3.42" ry="3.7"></ellipse>
                            <ellipse id="Oval-Copy-15-11" cx="71.67" cy="3.7" rx="3.42" ry="3.7"></ellipse>
                            <ellipse id="Oval-Copy-16-11" cx="37.6" cy="3.7" rx="3.42" ry="3.7"></ellipse>
                            <ellipse id="Oval-Copy-17-12" cx="3.42" cy="3.7" rx="3.42" ry="3.7"></ellipse>
                        </g>
                        <g id="Group-11-3" transform="translate(18.710000, 453.440000)" fill="#FEFEFB" fill-rule="nonzero">
                            <ellipse id="Oval-Copy-14-14" cx="105.52" cy="3.7" rx="3.42" ry="3.7"></ellipse>
                            <ellipse id="Oval-Copy-15-12" cx="71.67" cy="3.7" rx="3.42" ry="3.7"></ellipse>
                            <ellipse id="Oval-Copy-16-12" cx="37.6" cy="3.7" rx="3.42" ry="3.7"></ellipse>
                            <ellipse id="Oval-Copy-17-13" cx="3.42" cy="3.7" rx="3.42" ry="3.7"></ellipse>
                        </g>
                        <g id="Group-11-4" transform="translate(155.170000, 453.440000)" fill="#FEFEFB" fill-rule="nonzero">
                            <ellipse id="Oval-Copy-14-15" cx="105.52" cy="3.7" rx="3.42" ry="3.7"></ellipse>
                            <ellipse id="Oval-Copy-14-16" cx="139.73" cy="3.7" rx="3.42" ry="3.7"></ellipse>
                            <ellipse id="Oval-Copy-15-13" cx="71.67" cy="3.7" rx="3.42" ry="3.7"></ellipse>
                            <ellipse id="Oval-Copy-16-13" cx="37.6" cy="3.7" rx="3.42" ry="3.7"></ellipse>
                            <ellipse id="Oval-Copy-17-14" cx="3.42" cy="3.7" rx="3.42" ry="3.7"></ellipse>
                        </g>
                        <g id="Group-11-5" transform="translate(18.710000, 497.720000)" fill="#FEFEFB" fill-rule="nonzero">
                            <ellipse id="Oval-Copy-15-14" cx="71.67" cy="3.71" rx="3.42" ry="3.71"></ellipse>
                            <ellipse id="Oval-Copy-16-14" cx="37.6" cy="3.71" rx="3.42" ry="3.71"></ellipse>
                            <ellipse id="Oval-Copy-17-15" cx="3.42" cy="3.71" rx="3.42" ry="3.71"></ellipse>
                        </g>
                        <g id="Group-11-6" transform="translate(155.170000, 497.720000)" fill="#FEFEFB" fill-rule="nonzero">
                            <ellipse id="Oval-Copy-14-17" cx="105.52" cy="3.71" rx="3.42" ry="3.71"></ellipse>
                            <ellipse id="Oval-Copy-14-18" cx="139.73" cy="3.71" rx="3.42" ry="3.71"></ellipse>
                            <ellipse id="Oval-Copy-15-15" cx="71.67" cy="3.71" rx="3.42" ry="3.71"></ellipse>
                            <ellipse id="Oval-Copy-17-16" cx="3.42" cy="3.71" rx="3.42" ry="3.71"></ellipse>
                        </g>
                        <g id="Group-11-7" transform="translate(18.710000, 542.010000)" fill="#FEFEFB" fill-rule="nonzero">
                            <ellipse id="Oval-Copy-14-19" cx="105.52" cy="3.7" rx="3.42" ry="3.7"></ellipse>
                            <ellipse id="Oval-Copy-15-16" cx="71.67" cy="3.7" rx="3.42" ry="3.7"></ellipse>
                            <ellipse id="Oval-Copy-16-15" cx="37.6" cy="3.7" rx="3.42" ry="3.7"></ellipse>
                            <ellipse id="Oval-Copy-17-17" cx="3.42" cy="3.7" rx="3.42" ry="3.7"></ellipse>
                        </g>
                        <g id="Group-11-8" transform="translate(155.170000, 542.010000)" fill="#FEFEFB" fill-rule="nonzero">
                            <ellipse id="Oval-Copy-14-20" cx="105.52" cy="3.7" rx="3.42" ry="3.7"></ellipse>
                            <ellipse id="Oval-Copy-14-21" cx="139.73" cy="3.7" rx="3.42" ry="3.7"></ellipse>
                            <ellipse id="Oval-Copy-15-17" cx="71.67" cy="3.7" rx="3.42" ry="3.7"></ellipse>
                            <ellipse id="Oval-Copy-16-16" cx="37.6" cy="3.7" rx="3.42" ry="3.7"></ellipse>
                            <ellipse id="Oval-Copy-17-18" cx="3.42" cy="3.7" rx="3.42" ry="3.7"></ellipse>
                        </g>
                        <g id="Group-11-9" transform="translate(18.710000, 587.680000)" fill="#FEFEFB" fill-rule="nonzero">
                            <ellipse id="Oval-Copy-14-22" cx="105.52" cy="3.7" rx="3.42" ry="3.7"></ellipse>
                            <ellipse id="Oval-Copy-15-18" cx="71.67" cy="3.7" rx="3.42" ry="3.7"></ellipse>
                            <ellipse id="Oval-Copy-16-17" cx="37.6" cy="3.7" rx="3.42" ry="3.7"></ellipse>
                            <ellipse id="Oval-Copy-17-19" cx="3.42" cy="3.7" rx="3.42" ry="3.7"></ellipse>
                        </g>
                        <g id="Group-11-10" transform="translate(155.170000, 587.680000)" fill="#FEFEFB" fill-rule="nonzero">
                            <ellipse id="Oval-Copy-14-23" cx="105.52" cy="3.7" rx="3.42" ry="3.7"></ellipse>
                            <ellipse id="Oval-Copy-14-24" cx="139.73" cy="3.7" rx="3.42" ry="3.7"></ellipse>
                            <ellipse id="Oval-Copy-15-19" cx="71.67" cy="3.7" rx="3.42" ry="3.7"></ellipse>
                            <ellipse id="Oval-Copy-16-18" cx="37.6" cy="3.7" rx="3.42" ry="3.7"></ellipse>
                            <ellipse id="Oval-Copy-17-20" cx="3.42" cy="3.7" rx="3.42" ry="3.7"></ellipse>
                        </g>
                        <g id="Group-14" transform="translate(66.320000, 300.530000)">
                            <g id="Group-13-Copy" transform="translate(3.480000, 0.000000)" stroke="#DCDCCF" stroke-linecap="square" stroke-width="0.43">
                                <line x1="0.5" y1="0" x2="0.5" y2="61.26" id="Line-2-Copy-12"></line>
                            </g>
                            <ellipse id="Oval-Copy-19" fill="#097D90" fill-rule="nonzero" cx="3.7" cy="14.47" rx="3.7" ry="3.42"></ellipse>
                            <ellipse id="Oval-Copy-21" fill="#097D90" fill-rule="nonzero" cx="3.7" cy="38.26" rx="3.7" ry="3.42"></ellipse>
                        </g>
                        <g id="Group-14-2" transform="translate(243.390000, 300.530000)">
                            <g id="Group-13-Copy-2" transform="translate(3.490000, 0.000000)" stroke="#DCDCCF" stroke-linecap="square" stroke-width="0.43">
                                <line x1="0.5" y1="0" x2="0.5" y2="61.26" id="Line-2-Copy-12-2"></line>
                            </g>
                            <ellipse id="Oval-Copy-19-2" fill="#C37226" fill-rule="nonzero" cx="3.7" cy="14.47" rx="3.7" ry="3.42"></ellipse>
                            <ellipse id="Oval-Copy-21-2" fill="#C37226" fill-rule="nonzero" cx="3.7" cy="38.26" rx="3.7" ry="3.42"></ellipse>
                        </g>
                        <path d="M226.29,104.86 L267.9,104.86 C276.4,104.86 283.29,111.75 283.29,120.25 L283.29,120.25 C283.29,128.75 276.4,135.64 267.9,135.64 L226.29,135.64 C217.79,135.64 210.9,128.75 210.9,120.25 L210.9,120.25 C210.9,111.75 217.79,104.86 226.29,104.86 L226.29,104.86 Z" id="Rectangle-Copy-2" stroke="#FFFFFF" stroke-width="0.57" fill="#C67226"></path>
                        <g id="Parners-2" transform="translate(226.330000, 111.120000)" fill="#FFFFFF" fill-rule="nonzero">
                            <g id="Group">
                                <polygon id="Path" points="5.52 1.42108547e-14 6.35 1.42108547e-14 6.35 5.89 9.38 5.89 9.38 6.65 5.52 6.65"></polygon>
                                <polygon id="Path" points="11.09 1.42108547e-14 11.09 6.65 10.26 6.65 10.26 1.42108547e-14"></polygon>
                                <polygon id="Path" points="13.43 1.42108547e-14 15.79 5.52 18.12 1.42108547e-14 19.15 1.42108547e-14 19.15 6.65 18.34 6.65 18.34 1.4 16.13 6.65 15.4 6.65 13.19 1.4 13.19 6.65 12.38 6.65 12.38 1.42108547e-14 13.43 1.42108547e-14"></polygon>
                                <polygon id="Path" points="21.25 1.42108547e-14 21.25 6.65 20.42 6.65 20.42 1.42108547e-14"></polygon>
                                <polygon id="Path" points="27.28 1.42108547e-14 27.28 0.76 25.12 0.76 25.12 6.65 24.29 6.65 24.29 0.76 22.13 0.76 22.13 1.42108547e-14 27.27 1.42108547e-14"></polygon>
                                <polygon id="Path" points="32.4 1.42108547e-14 32.4 0.76 28.99 0.76 28.99 2.89 31.83 2.89 31.83 3.65 28.99 3.65 28.99 5.89 32.53 5.89 32.53 6.65 28.17 6.65 28.17 1.42108547e-14 32.41 1.42108547e-14"></polygon>
                                <path d="M35.42,0 C36.1,0 36.7,0.14 37.2,0.41 C37.7,0.69 38.09,1.07 38.36,1.58 C38.63,2.08 38.76,2.66 38.76,3.33 C38.76,4 38.63,4.57 38.36,5.07 C38.09,5.57 37.7,5.96 37.2,6.24 C36.7,6.52 36.1,6.65 35.42,6.65 L33.45,6.65 L33.45,0 L35.42,0 L35.42,0 Z M37.26,5.2 C37.7,4.74 37.92,4.11 37.92,3.33 C37.92,2.55 37.7,1.91 37.27,1.45 C36.84,0.99 36.22,0.76 35.42,0.76 L34.28,0.76 L34.28,5.89 L35.42,5.89 C36.21,5.89 36.83,5.66 37.26,5.2 Z" id="Shape"></path>
                                <path d="M3.72,11.66 C4.06,11.83 4.31,12.07 4.49,12.37 C4.67,12.67 4.76,13.04 4.76,13.45 C4.76,13.86 4.67,14.22 4.48,14.53 C4.3,14.84 4.04,15.08 3.71,15.25 C3.38,15.42 2.99,15.5 2.56,15.5 L0.83,15.5 L0.83,18.06 L-2.84217094e-14,18.06 L-2.84217094e-14,11.41 L2.56,11.41 C3,11.41 3.38,11.49 3.72,11.66 L3.72,11.66 Z M2.48,14.74 C2.92,14.74 3.27,14.62 3.53,14.39 C3.79,14.15 3.92,13.84 3.92,13.45 C3.92,13.06 3.79,12.74 3.54,12.51 C3.28,12.28 2.94,12.16 2.5,12.16 L0.84,12.16 L0.84,14.74 L2.49,14.74 L2.48,14.74 Z" id="Shape"></path>
                                <path d="M6.78,11.4 L7.76,11.4 L10.29,18.05 L9.41,18.05 L8.71,16.25 L5.81,16.25 L5.11,18.05 L4.25,18.05 L6.79,11.4 L6.78,11.4 Z M8.45,15.51 L7.24,12.31 L6.04,15.51 L8.45,15.51 Z" id="Shape"></path>
                                <path d="M14.74,11.66 C15.08,11.83 15.34,12.07 15.52,12.37 C15.7,12.68 15.8,13.04 15.8,13.45 C15.8,13.91 15.67,14.31 15.41,14.65 C15.15,14.99 14.81,15.22 14.38,15.34 L15.87,18.06 L14.94,18.06 L13.56,15.5 L11.86,15.5 L11.86,18.06 L11.03,18.06 L11.03,11.41 L13.58,11.41 C14.02,11.41 14.4,11.49 14.74,11.66 L14.74,11.66 Z M13.51,14.74 C13.95,14.74 14.3,14.62 14.56,14.39 C14.82,14.15 14.95,13.84 14.95,13.45 C14.95,13.06 14.82,12.75 14.56,12.52 C14.3,12.29 13.95,12.17 13.52,12.17 L11.86,12.17 L11.86,14.75 L13.51,14.75 L13.51,14.74 Z" id="Shape"></path>
                                <polygon id="Path" points="21.21 11.4 21.21 12.16 19.05 12.16 19.05 18.05 18.22 18.05 18.22 12.16 16.06 12.16 16.06 11.4 21.2 11.4"></polygon>
                                <polygon id="Path" points="22.09 11.4 22.85 11.4 26.42 16.53 26.42 11.4 27.23 11.4 27.23 18.05 26.47 18.05 22.9 12.92 22.9 18.05 22.09 18.05"></polygon>
                                <polygon id="Path" points="32.77 11.4 32.77 12.16 29.36 12.16 29.36 14.29 32.2 14.29 32.2 15.05 29.36 15.05 29.36 17.29 32.9 17.29 32.9 18.05 28.54 18.05 28.54 11.4 32.78 11.4"></polygon>
                                <path d="M37.52,11.66 C37.86,11.83 38.12,12.07 38.3,12.37 C38.48,12.68 38.58,13.04 38.58,13.45 C38.58,13.91 38.45,14.31 38.19,14.65 C37.93,14.99 37.59,15.22 37.16,15.34 L38.65,18.06 L37.72,18.06 L36.34,15.5 L34.64,15.5 L34.64,18.06 L33.81,18.06 L33.81,11.41 L36.36,11.41 C36.8,11.41 37.18,11.49 37.52,11.66 L37.52,11.66 Z M36.29,14.74 C36.73,14.74 37.08,14.62 37.34,14.39 C37.6,14.15 37.73,13.84 37.73,13.45 C37.73,13.06 37.6,12.75 37.34,12.52 C37.08,12.29 36.73,12.17 36.3,12.17 L34.64,12.17 L34.64,14.75 L36.29,14.75 L36.29,14.74 Z" id="Shape"></path>
                                <path d="M40.67,16.96 C41,17.23 41.42,17.36 41.92,17.36 C42.38,17.36 42.75,17.26 43.03,17.06 C43.31,16.86 43.45,16.58 43.45,16.23 C43.45,15.97 43.37,15.76 43.22,15.61 C43.06,15.46 42.87,15.35 42.62,15.27 C42.38,15.2 42.04,15.13 41.63,15.06 C40.96,14.95 40.44,14.76 40.04,14.5 C39.65,14.24 39.45,13.82 39.45,13.24 C39.45,12.87 39.54,12.53 39.74,12.25 C39.93,11.96 40.2,11.74 40.54,11.58 C40.88,11.42 41.28,11.34 41.72,11.34 C42.19,11.34 42.6,11.42 42.97,11.6 C43.33,11.77 43.62,12.01 43.83,12.32 C44.04,12.63 44.16,12.98 44.18,13.38 L43.36,13.38 C43.31,12.99 43.14,12.68 42.84,12.45 C42.54,12.22 42.17,12.1 41.73,12.1 C41.29,12.1 40.93,12.2 40.67,12.39 C40.41,12.58 40.28,12.85 40.28,13.2 C40.28,13.45 40.36,13.65 40.51,13.79 C40.66,13.93 40.86,14.04 41.1,14.11 C41.34,14.18 41.67,14.25 42.09,14.32 C42.76,14.43 43.29,14.62 43.69,14.89 C44.09,15.15 44.29,15.58 44.29,16.16 C44.29,16.54 44.19,16.88 43.99,17.18 C43.79,17.48 43.51,17.71 43.15,17.87 C42.79,18.04 42.38,18.12 41.92,18.12 C41.4,18.12 40.95,18.03 40.56,17.84 C40.17,17.65 39.87,17.39 39.66,17.05 C39.45,16.71 39.33,16.32 39.31,15.89 L40.13,15.89 C40.16,16.34 40.34,16.7 40.67,16.97 L40.67,16.96 Z" id="Path"></path>
                            </g>
                        </g>
                        <path d="M226.29,195.38 L267.9,195.38 C276.4,195.38 283.29,202.27 283.29,210.77 L283.29,210.77 C283.29,219.27 276.4,226.16 267.9,226.16 L226.29,226.16 C217.79,226.16 210.9,219.27 210.9,210.77 L210.9,210.77 C210.9,202.27 217.79,195.38 226.29,195.38 L226.29,195.38 Z" id="Rectangle-Copy-3" stroke="#FFFFFF" stroke-width="0.57" fill="#C67226"></path>
                        <g id="Parners-3" transform="translate(222.350000, 201.580000)" fill="#FFFFFF" fill-rule="nonzero">
                            <g id="Group">
                                <path d="M4.81,6.34 C4.33,6.63 3.78,6.78 3.17,6.78 C2.56,6.78 2.01,6.63 1.53,6.34 C1.05,6.05 0.67,5.65 0.4,5.13 C0.13,4.62 0,4.04 0,3.39 C0,2.74 0.13,2.16 0.4,1.65 C0.67,1.14 1.05,0.73 1.53,0.44 C2.01,0.15 2.56,0 3.17,0 C3.78,0 4.33,0.15 4.81,0.44 C5.29,0.73 5.67,1.13 5.94,1.65 C6.21,2.16 6.34,2.74 6.34,3.39 C6.34,4.04 6.21,4.62 5.94,5.13 C5.67,5.64 5.3,6.05 4.81,6.34 Z M1.95,5.68 C2.3,5.9 2.71,6.02 3.16,6.02 C3.61,6.02 4.02,5.91 4.37,5.68 C4.72,5.46 5,5.14 5.19,4.75 C5.39,4.35 5.48,3.9 5.48,3.4 C5.48,2.9 5.38,2.44 5.19,2.05 C4.99,1.65 4.72,1.34 4.37,1.12 C4.02,0.89 3.61,0.78 3.16,0.78 C2.71,0.78 2.3,0.89 1.95,1.12 C1.6,1.34 1.32,1.66 1.13,2.05 C0.93,2.45 0.84,2.9 0.84,3.4 C0.84,3.9 0.94,4.36 1.13,4.75 C1.33,5.15 1.6,5.46 1.95,5.68 Z" id="Shape"></path>
                                <path d="M11.1,0.31 C11.44,0.48 11.69,0.72 11.87,1.02 C12.05,1.32 12.14,1.69 12.14,2.1 C12.14,2.51 12.05,2.87 11.86,3.18 C11.68,3.49 11.42,3.73 11.09,3.9 C10.76,4.07 10.37,4.15 9.94,4.15 L8.21,4.15 L8.21,6.71 L7.38,6.71 L7.38,0.06 L9.94,0.06 C10.38,0.06 10.76,0.14 11.1,0.31 L11.1,0.31 Z M9.86,3.39 C10.3,3.39 10.65,3.27 10.91,3.04 C11.17,2.8 11.3,2.49 11.3,2.1 C11.3,1.71 11.17,1.39 10.92,1.16 C10.66,0.93 10.32,0.81 9.88,0.81 L8.22,0.81 L8.22,3.39 L9.87,3.39 L9.86,3.39 Z" id="Shape"></path>
                                <polygon id="Path" points="17.26 0.06 17.26 0.82 13.85 0.82 13.85 2.95 16.69 2.95 16.69 3.71 13.85 3.71 13.85 5.95 17.39 5.95 17.39 6.71 13.03 6.71 13.03 0.06 17.27 0.06"></polygon>
                                <path d="M22.02,0.31 C22.36,0.48 22.62,0.72 22.8,1.02 C22.98,1.33 23.08,1.69 23.08,2.1 C23.08,2.56 22.95,2.96 22.69,3.3 C22.43,3.64 22.09,3.87 21.66,3.99 L23.15,6.71 L22.22,6.71 L20.84,4.15 L19.14,4.15 L19.14,6.71 L18.31,6.71 L18.31,0.06 L20.86,0.06 C21.3,0.06 21.68,0.14 22.02,0.31 L22.02,0.31 Z M20.79,3.39 C21.23,3.39 21.58,3.27 21.84,3.04 C22.1,2.8 22.23,2.49 22.23,2.1 C22.23,1.71 22.1,1.4 21.84,1.17 C21.58,0.94 21.23,0.82 20.8,0.82 L19.14,0.82 L19.14,3.4 L20.79,3.4 L20.79,3.39 Z" id="Shape"></path>
                                <path d="M25.98,0.06 L26.96,0.06 L29.49,6.71 L28.61,6.71 L27.91,4.91 L25.01,4.91 L24.31,6.71 L23.45,6.71 L25.99,0.06 L25.98,0.06 Z M27.65,4.17 L26.44,0.97 L25.24,4.17 L27.65,4.17 Z" id="Shape"></path>
                                <polygon id="Path" points="34.02 0.06 34.02 0.82 31.86 0.82 31.86 6.71 31.03 6.71 31.03 0.82 28.87 0.82 28.87 0.06 34.01 0.06"></polygon>
                                <polygon id="Path" points="35.73 0.06 35.73 6.71 34.9 6.71 34.9 0.06"></polygon>
                                <polygon id="Path" points="37.02 0.06 37.78 0.06 41.35 5.19 41.35 0.06 42.16 0.06 42.16 6.71 41.4 6.71 37.83 1.58 37.83 6.71 37.02 6.71"></polygon>
                                <path d="M44.7,0.43 C45.18,0.15 45.74,0.01 46.37,0.01 C47.11,0.01 47.72,0.21 48.22,0.61 C48.72,1.01 49.03,1.55 49.16,2.23 L48.34,2.23 C48.21,1.77 47.98,1.41 47.63,1.15 C47.28,0.89 46.86,0.76 46.36,0.76 C45.9,0.76 45.5,0.87 45.15,1.09 C44.8,1.31 44.53,1.62 44.34,2.02 C44.15,2.42 44.05,2.87 44.05,3.38 C44.05,3.89 44.15,4.34 44.34,4.74 C44.53,5.14 44.8,5.45 45.15,5.67 C45.5,5.89 45.9,6 46.35,6 C46.76,6 47.12,5.92 47.44,5.77 C47.76,5.61 48.01,5.39 48.19,5.1 C48.37,4.81 48.46,4.47 48.46,4.09 L48.46,3.86 L46.46,3.86 L46.46,3.1 L49.26,3.1 L49.26,6.7 L48.58,6.7 L48.49,5.64 C48.31,5.94 48.03,6.2 47.66,6.42 C47.29,6.64 46.85,6.75 46.33,6.75 C45.72,6.75 45.18,6.61 44.7,6.32 C44.22,6.03 43.86,5.64 43.59,5.13 C43.33,4.62 43.2,4.03 43.2,3.37 C43.2,2.71 43.33,2.12 43.59,1.6 C43.85,1.09 44.22,0.69 44.7,0.41 L44.7,0.43 Z" id="Path"></path>
                                <path d="M6.45,11.72 C6.79,11.89 7.04,12.13 7.22,12.43 C7.4,12.73 7.49,13.1 7.49,13.51 C7.49,13.92 7.4,14.28 7.21,14.59 C7.03,14.9 6.77,15.14 6.44,15.31 C6.11,15.48 5.72,15.56 5.29,15.56 L3.56,15.56 L3.56,18.12 L2.73,18.12 L2.73,11.47 L5.29,11.47 C5.73,11.47 6.11,11.55 6.45,11.72 L6.45,11.72 Z M5.21,14.8 C5.65,14.8 6,14.68 6.26,14.45 C6.52,14.21 6.65,13.9 6.65,13.51 C6.65,13.12 6.52,12.8 6.27,12.57 C6.01,12.34 5.67,12.22 5.23,12.22 L3.57,12.22 L3.57,14.8 L5.22,14.8 L5.21,14.8 Z" id="Shape"></path>
                                <path d="M9.51,11.46 L10.49,11.46 L13.02,18.11 L12.14,18.11 L11.44,16.31 L8.54,16.31 L7.84,18.11 L6.98,18.11 L9.52,11.46 L9.51,11.46 Z M11.18,15.57 L9.97,12.37 L8.77,15.57 L11.18,15.57 Z" id="Shape"></path>
                                <path d="M17.47,11.72 C17.81,11.89 18.07,12.13 18.25,12.43 C18.43,12.74 18.53,13.1 18.53,13.51 C18.53,13.97 18.4,14.37 18.14,14.71 C17.88,15.05 17.54,15.28 17.11,15.4 L18.6,18.12 L17.67,18.12 L16.29,15.56 L14.59,15.56 L14.59,18.12 L13.76,18.12 L13.76,11.47 L16.31,11.47 C16.75,11.47 17.13,11.55 17.47,11.72 L17.47,11.72 Z M16.24,14.8 C16.68,14.8 17.03,14.68 17.29,14.45 C17.55,14.21 17.68,13.9 17.68,13.51 C17.68,13.12 17.55,12.81 17.29,12.58 C17.03,12.35 16.68,12.23 16.25,12.23 L14.59,12.23 L14.59,14.81 L16.24,14.81 L16.24,14.8 Z" id="Shape"></path>
                                <polygon id="Path" points="23.94 11.46 23.94 12.22 21.78 12.22 21.78 18.11 20.95 18.11 20.95 12.22 18.79 12.22 18.79 11.46 23.93 11.46"></polygon>
                                <polygon id="Path" points="24.82 11.46 25.58 11.46 29.15 16.59 29.15 11.46 29.96 11.46 29.96 18.11 29.2 18.11 25.63 12.98 25.63 18.11 24.82 18.11"></polygon>
                                <polygon id="Path" points="35.49 11.46 35.49 12.22 32.08 12.22 32.08 14.35 34.92 14.35 34.92 15.11 32.08 15.11 32.08 17.35 35.62 17.35 35.62 18.11 31.26 18.11 31.26 11.46 35.5 11.46"></polygon>
                                <path d="M40.25,11.72 C40.59,11.89 40.85,12.13 41.03,12.43 C41.21,12.74 41.31,13.1 41.31,13.51 C41.31,13.97 41.18,14.37 40.92,14.71 C40.66,15.05 40.32,15.28 39.89,15.4 L41.38,18.12 L40.45,18.12 L39.07,15.56 L37.37,15.56 L37.37,18.12 L36.54,18.12 L36.54,11.47 L39.09,11.47 C39.53,11.47 39.91,11.55 40.25,11.72 L40.25,11.72 Z M39.02,14.8 C39.46,14.8 39.81,14.68 40.07,14.45 C40.33,14.21 40.46,13.9 40.46,13.51 C40.46,13.12 40.33,12.81 40.07,12.58 C39.81,12.35 39.46,12.23 39.03,12.23 L37.37,12.23 L37.37,14.81 L39.02,14.81 L39.02,14.8 Z" id="Shape"></path>
                                <path d="M43.39,17.02 C43.72,17.29 44.14,17.42 44.64,17.42 C45.1,17.42 45.47,17.32 45.75,17.12 C46.03,16.92 46.17,16.64 46.17,16.29 C46.17,16.03 46.09,15.82 45.94,15.67 C45.78,15.52 45.59,15.41 45.34,15.33 C45.1,15.26 44.76,15.19 44.35,15.12 C43.68,15.01 43.16,14.82 42.76,14.56 C42.37,14.3 42.17,13.88 42.17,13.3 C42.17,12.93 42.26,12.59 42.46,12.31 C42.65,12.02 42.92,11.8 43.26,11.64 C43.6,11.48 44,11.4 44.44,11.4 C44.91,11.4 45.32,11.48 45.69,11.66 C46.05,11.83 46.34,12.07 46.55,12.38 C46.76,12.69 46.88,13.04 46.9,13.44 L46.08,13.44 C46.03,13.05 45.86,12.74 45.56,12.51 C45.26,12.28 44.89,12.16 44.45,12.16 C44.01,12.16 43.65,12.26 43.39,12.45 C43.13,12.64 43,12.91 43,13.26 C43,13.51 43.08,13.71 43.23,13.85 C43.38,13.99 43.58,14.1 43.82,14.17 C44.06,14.24 44.39,14.31 44.81,14.38 C45.48,14.49 46.01,14.68 46.41,14.95 C46.81,15.21 47.01,15.64 47.01,16.22 C47.01,16.6 46.91,16.94 46.71,17.24 C46.51,17.54 46.23,17.77 45.87,17.93 C45.51,18.1 45.1,18.18 44.64,18.18 C44.12,18.18 43.67,18.09 43.28,17.9 C42.89,17.71 42.59,17.45 42.38,17.11 C42.17,16.77 42.05,16.38 42.03,15.95 L42.85,15.95 C42.88,16.4 43.06,16.76 43.39,17.03 L43.39,17.02 Z" id="Path"></path>
                            </g>
                        </g>
                        <path d="M137.31,486.1 L178.92,486.1 C187.42,486.1 194.31,492.99 194.31,501.49 L194.31,501.49 C194.31,509.99 187.42,516.88 178.92,516.88 L137.31,516.88 C128.81,516.88 121.92,509.99 121.92,501.49 L121.92,501.49 C121.92,492.99 128.81,486.1 137.31,486.1 L137.31,486.1 Z" id="Rectangle-Copy-4" stroke="#FEFEFB" stroke-width="0.57" fill="#3C7BD6"></path>
                        <g id="Parners-4" transform="translate(140.830000, 495.480000)" fill="#FFFFFF" fill-rule="nonzero" font-family="Aeonik-Regular, Aeonik" font-size="9.5" font-weight="normal">
                            <g id="Group" transform="translate(0.000000, 0.000000)">
                                <text id="PO">
                                    <tspan x="0" y="10">PO</tspan>
                                </text>
                                <text id="R">
                                    <tspan x="12.79" y="10">R</tspan>
                                </text>
                                <text id="T">
                                    <tspan x="18.23" y="10">T</tspan>
                                </text>
                                <text id="C">
                                    <tspan x="23.34" y="10">C</tspan>
                                </text>
                                <text id="O">
                                    <tspan x="29.98" y="10">O</tspan>
                                </text>
                            </g>
                        </g>
                    </g>
                    <text id="Operator-GTM-Experti" font-family="Aeonik-Regular, Aeonik" font-size="15" font-weight="normal" line-spacing="22" fill="#FFFFFF">
                        <tspan x="79.88" y="620">Operator GTM Expertise</tspan>
                    </text>
                </g>
            </g>
        </g>
    </g>
</svg>