<?xml version="1.0" encoding="UTF-8" standalone="no"?> <svg xmlns="http://www.w3.org/2000/svg" version="1.0" width="756.000000pt" height="138.000000pt" viewBox="0 0 756.000000 138.000000" preserveAspectRatio="xMidYMid meet"><metadata> Created by potrace 1.16, written by Peter Selinger 2001-2019 </metadata><g transform="translate(0.000000,138.000000) scale(0.100000,-0.100000)" fill="#000000" stroke="none"><path d="M965 1288 c-34 -9 -98 -68 -442 -411 -222 -221 -409 -415 -417 -432 -23 -48 -29 -106 -16 -155 17 -64 91 -134 156 -148 52 -11 112 -4 154 17 14 8 114 101 222 209 l196 195 4 -146 c3 -143 3 -146 33 -188 53 -76 132 -106 225 -88 54 11 59 15 263 217 l207 206 0 -120 c0 -151 10 -187 69 -245 37 -38 56 -49 101 -58 62 -12 111 -4 162 27 18 11 99 87 179 169 132 133 149 154 163 203 14 46 14 64 5 110 -20 98 -130 181 -220 168 l-27 -4 -4 172 -3 172 -30 44 c-44 61 -105 93 -180 92 -38 0 -73 -6 -95 -18 -19 -10 -122 -104 -227 -209 l-193 -191 0 101 c0 143 -13 196 -62 249 -60 65 -132 85 -223 62z"></path><path d="M6281 703 c-64 -23 -134 -96 -157 -164 -39 -116 -16 -227 62 -299 65 -59 124 -83 209 -84 121 0 211 57 260 165 23 53 27 71 23 133 -6 111 -55 188 -151 238 -56 29 -183 35 -246 11z m179 -128 c67 -34 95 -146 54 -215 -29 -51 -66 -73 -119 -73 -76 0 -135 58 -142 140 -10 117 106 200 207 148z"></path><path d="M2542 438 l3 -273 43 -3 42 -3 0 223 1 223 88 -220 c85 -211 90 -220 116 -220 26 0 31 9 116 220 l88 220 1 -223 0 -223 43 3 42 3 3 273 2 272 -68 0 -69 0 -78 -200 c-43 -110 -80 -199 -81 -197 -2 1 -87 217 -151 385 -4 8 -28 12 -74 12 l-69 0 2 -272z"></path><path d="M3960 435 l0 -275 40 0 39 0 3 102 3 103 79 -103 79 -102 48 0 c27 0 49 3 49 8 0 4 -36 52 -80 107 -44 55 -80 103 -80 108 0 4 32 48 70 97 39 49 70 92 70 95 0 3 -22 5 -48 5 l-49 0 -69 -95 -69 -95 -3 160 -2 160 -40 0 -40 0 0 -275z"></path><path d="M4800 645 l0 -65 -30 0 c-28 0 -30 -2 -30 -40 0 -38 2 -40 30 -40 l30 0 0 -170 0 -170 40 0 40 0 0 170 0 170 35 0 c34 0 35 1 35 40 0 39 -1 40 -35 40 l-35 0 0 65 0 65 -40 0 -40 0 0 -65z"></path><path d="M3340 577 c-48 -16 -113 -83 -128 -133 -40 -135 25 -252 157 -284 58 -14 123 0 159 33 l22 20 0 -26 c0 -25 3 -27 45 -27 l45 0 0 210 0 210 -45 0 c-39 0 -45 -3 -45 -21 l0 -21 -35 22 c-41 26 -126 34 -175 17z m135 -81 c47 -20 75 -69 75 -130 0 -43 -4 -53 -38 -86 -72 -73 -163 -59 -210 31 -36 69 -16 139 51 179 38 24 75 25 122 6z"></path><path d="M3843 575 c-18 -8 -33 -10 -33 -5 0 6 -18 10 -40 10 l-40 0 0 -210 0 -210 39 0 40 0 3 146 c3 146 3 146 31 170 15 13 37 24 48 24 16 0 19 7 19 45 0 51 -10 55 -67 30z"></path><path d="M4436 575 c-89 -31 -142 -120 -134 -224 15 -204 282 -269 385 -93 l25 42 -42 0 c-33 0 -48 -6 -71 -30 -36 -35 -88 -47 -129 -30 -30 12 -80 63 -80 81 0 5 71 9 165 9 l165 0 0 38 c0 66 -20 115 -64 157 -63 61 -140 79 -220 50z m161 -109 c57 -61 50 -66 -91 -66 l-125 0 11 30 c17 51 72 82 133 75 30 -3 48 -13 72 -39z"></path><path d="M5285 570 c-47 -24 -45 -24 -45 -5 0 11 -11 15 -40 15 l-40 0 0 -210 0 -210 45 0 45 0 0 135 c0 147 8 178 51 201 34 17 60 18 92 3 40 -18 50 -54 55 -201 l4 -138 39 0 39 0 0 148 c0 133 -2 152 -22 192 -41 80 -141 112 -223 70z"></path><path d="M5748 576 c-86 -31 -138 -93 -146 -176 -8 -83 4 -117 61 -175 78 -77 169 -93 255 -44 31 18 32 18 32 -1 0 -31 -48 -79 -93 -91 -49 -13 -104 0 -132 31 -13 15 -31 20 -67 20 l-49 0 15 -27 c35 -68 104 -105 196 -105 107 0 185 53 210 140 5 20 10 126 10 235 l0 197 -40 0 c-25 0 -42 -6 -48 -15 -7 -14 -13 -13 -53 4 -51 24 -98 26 -151 7z m127 -80 c46 -20 75 -69 75 -128 0 -38 -6 -54 -30 -82 -62 -70 -153 -70 -206 -1 -51 68 -37 154 35 202 39 26 77 29 126 9z"></path><path d="M6907 571 c-29 -15 -37 -16 -37 -5 0 11 -16 14 -65 14 l-65 0 0 -275 0 -275 65 0 65 0 0 80 0 80 42 -21 c92 -47 208 -4 254 94 54 118 13 261 -90 308 -53 24 -122 24 -169 0z m131 -136 c65 -75 -17 -192 -109 -155 -74 31 -78 150 -5 181 35 14 89 2 114 -26z"></path><path d="M7310 572 c-45 -22 -80 -75 -80 -120 0 -46 48 -91 124 -117 63 -21 81 -37 72 -60 -7 -19 -55 -20 -62 0 -5 11 -22 15 -70 15 -73 0 -79 -10 -44 -68 53 -87 210 -96 279 -16 26 29 31 43 31 85 0 66 -30 98 -123 128 -74 25 -86 36 -65 57 15 15 48 10 48 -7 0 -5 29 -9 65 -9 72 0 78 7 50 60 -32 63 -150 90 -225 52z"></path><path d="M4990 370 l0 -210 40 0 40 0 0 210 0 210 -40 0 -40 0 0 -210z"></path></g></svg> 