<?xml version="1.0" standalone="no"?>
<!DOCTYPE svg PUBLIC "-//W3C//DTD SVG 20010904//EN"
 "http://www.w3.org/TR/2001/REC-SVG-20010904/DTD/svg10.dtd">
<svg version="1.0" xmlns="http://www.w3.org/2000/svg"
 width="640.000000pt" height="640.000000pt" viewBox="0 0 640.000000 640.000000"
 preserveAspectRatio="xMidYMid meet">
<metadata>
Created by potrace 1.14, written by Peter Selinger 2001-2017
</metadata>
<g transform="translate(0.000000,640.000000) scale(0.100000,-0.100000)"
fill="#000000" stroke="none">
<path d="M1698 4778 c-13 -18 -36 -51 -50 -73 -25 -37 -124 -180 -148 -215 -6
-8 -107 -154 -224 -325 -118 -170 -233 -336 -255 -368 l-41 -57 0 -1075 0
-1075 879 0 878 0 -1 530 c0 292 2 530 5 530 7 0 19 -18 314 -445 118 -170
219 -317 225 -325 6 -8 54 -77 106 -152 l97 -138 969 0 c772 0 969 3 965 13
-5 13 -148 220 -172 250 -8 9 -15 19 -15 21 0 4 -125 186 -200 291 -86 120
-333 482 -337 491 -4 11 17 45 128 204 35 50 64 92 291 420 86 124 170 245
187 270 17 25 53 77 80 116 l49 70 -148 215 c-82 118 -190 275 -242 349 -51
74 -133 193 -182 265 -50 71 -93 132 -98 133 -4 2 -8 10 -8 17 0 7 -4 15 -8
17 -4 2 -18 20 -31 41 l-23 37 -1483 0 -1483 0 -24 -32z m1089 -38 c16 -25 67
-99 113 -165 46 -66 98 -140 115 -165 17 -25 56 -81 85 -125 30 -44 59 -84 63
-90 5 -5 44 -62 87 -125 44 -63 110 -160 148 -215 38 -55 72 -105 75 -110 3
-6 -10 -33 -29 -60 -19 -28 -51 -75 -71 -105 -21 -30 -61 -88 -90 -127 -29
-40 -53 -75 -53 -77 0 -3 -30 -48 -67 -100 -38 -52 -93 -131 -123 -176 -30
-44 -61 -88 -68 -98 -19 -26 -131 -188 -182 -263 -25 -37 -47 -65 -49 -63 -3
3 -5 1933 -2 2089 1 43 4 42 48 -25z"/>
</g>
</svg>
